<svg xmlns="http://www.w3.org/2000/svg" xmlns:xlink="http://www.w3.org/1999/xlink" width="500" zoomAndPan="magnify" viewBox="0 0 375 374.999991" height="500" preserveAspectRatio="xMidYMid meet" version="1.0"><path fill="#e1e8f3" d="M 417.871094 162.054688 C 415.832031 165.070312 410.328125 175.0625 410.652344 190.070312 C 411.101562 210.664062 438.503906 218.246094 454.285156 199.691406 C 470.640625 180.484375 461.832031 161.074219 446.78125 160.015625 C 435.40625 159.199219 427.820312 165.765625 424.640625 169.230469 C 424.640625 169.191406 424.679688 169.191406 424.679688 169.148438 C 427.78125 161.726562 420.929688 157.566406 417.871094 162.054688 Z M 445.316406 170.984375 C 461.300781 176.328125 451.066406 202.875 434.183594 200.304688 C 422.847656 198.589844 420.726562 189.945312 421.460938 181.832031 C 424.640625 174.246094 437.320312 168.292969 445.316406 170.984375 Z M 503.589844 140.765625 C 500.039062 140.765625 490.007812 139.21875 482.382812 138.972656 C 485.644531 146.191406 492.171875 164.011719 491.355469 190.230469 C 490.210938 227.382812 469.539062 247.527344 440.667969 247.648438 C 414.484375 247.769531 399.804688 230.929688 397.765625 224.609375 C 395.929688 218.777344 400.089844 218.941406 401.886719 220.855469 C 405.433594 224.566406 408.328125 227.75 414.609375 230.644531 C 435.445312 240.226562 473.003906 235.046875 476.878906 198.835938 C 480.222656 167.558594 471.085938 145.945312 467.375 139.421875 C 443.070312 139.871094 416.402344 146.3125 402.824219 151.53125 C 391.40625 155.894531 390.019531 148.71875 390.261719 145.578125 C 390.425781 143.5 392.097656 138.769531 397.601562 137.261719 C 443.480469 124.902344 493.679688 132.691406 500.609375 133.792969 C 507.910156 134.976562 507.175781 140.765625 503.589844 140.765625 Z M 534.785156 148.921875 C 542.328125 146.355469 555.335938 142.722656 564.714844 141.011719 C 548.976562 151.898438 527.933594 182.035156 543.960938 205.851562 C 562.351562 233.171875 614.304688 221.875 615.363281 186.683594 C 616.382812 152.265625 575.5625 150.226562 565 169.3125 C 555.988281 185.582031 568.589844 195.898438 576.214844 196.265625 C 577.234375 199.164062 578.867188 200.875 580.171875 200.710938 C 582.535156 200.34375 582.046875 198.265625 581.109375 195.535156 C 583.3125 194.59375 590.773438 190.84375 592.363281 183.136719 C 594.238281 174.082031 582.25 170.292969 577.152344 181.667969 C 575.847656 184.5625 575.316406 187.378906 575.277344 189.90625 C 575.238281 189.90625 575.238281 189.90625 575.195312 189.90625 C 561.332031 185.5 572.625 160.257812 594.117188 169.148438 C 613.609375 177.222656 600.722656 216.167969 567.164062 205.6875 C 534.867188 195.613281 559.820312 142.113281 588.980469 137.585938 C 599.417969 137.097656 611.691406 137.789062 620.175781 139.09375 C 627.148438 140.15625 627.472656 134.121094 622.582031 132.609375 C 608.878906 128.371094 561.496094 125.515625 533.398438 134.488281 C 528.789062 135.957031 525.566406 139.136719 525.363281 143.582031 C 525.160156 147.902344 529.359375 150.796875 534.785156 148.921875 Z M 585.839844 178.40625 C 590.855469 178.9375 586.613281 188.03125 580.046875 189.945312 C 580.128906 184.972656 581.882812 178 585.839844 178.40625 Z M 640.117188 224.976562 C 637.875 222.8125 635.671875 220.488281 633.753906 217.839844 C 635.46875 214.863281 640.277344 205.402344 639.054688 194.636719 C 637.585938 181.585938 623.804688 182.648438 622.90625 198.878906 C 622.539062 205.605469 623.273438 211.027344 624.742188 215.390625 C 615.976562 226.160156 597.949219 236.269531 575.644531 235.699219 C 553.910156 235.128906 532.5 227.464844 521.410156 209.234375 C 518.757812 204.871094 515.167969 204.914062 515.128906 209.316406 C 515.046875 217.59375 534.007812 248.75 574.992188 249.566406 C 603.210938 250.09375 620.785156 237.820312 629.839844 224.484375 C 631.714844 226.6875 633.835938 228.402344 636.039062 229.789062 C 640.726562 232.722656 642.890625 227.625 640.117188 224.976562 Z M 630.65625 190.230469 C 633.632812 190.3125 634.488281 198.550781 629.023438 208.828125 C 628.941406 208.542969 628.820312 208.296875 628.738281 208.011719 C 626.453125 200.671875 627.351562 190.191406 630.65625 190.230469 Z M 36.140625 247.730469 C 45.722656 249.808594 54.898438 248.871094 63.625 244.265625 C 73.53125 239.003906 80.75 231.011719 86.417969 221.46875 C 86.867188 220.734375 87.113281 219.878906 88.050781 219.265625 C 88.457031 221.46875 88.742188 223.507812 89.152344 225.503906 C 91.597656 237.167969 101.34375 242.226562 112.273438 237.453125 C 116.597656 235.578125 119.695312 232.273438 122.425781 228.484375 C 122.996094 227.707031 123.324219 226.199219 124.179688 226.320312 C 125.199219 226.445312 125.078125 227.992188 125.402344 228.929688 C 127.074219 233.703125 129.847656 237.414062 134.988281 238.71875 C 139.351562 239.820312 143.429688 238.800781 147.261719 236.636719 C 151.460938 234.273438 154.519531 230.683594 157.375 226.890625 C 157.699219 226.445312 157.90625 225.628906 158.515625 225.792969 C 159.167969 225.953125 158.882812 226.769531 158.882812 227.300781 C 158.964844 229.296875 159.292969 231.214844 159.820312 233.132812 C 161.371094 238.675781 165 239.738281 170.015625 238.597656 C 171.972656 238.148438 173.15625 237.003906 173.644531 234.964844 C 174.949219 229.339844 176.828125 223.914062 179.027344 218.574219 C 182.863281 209.277344 187.511719 200.46875 193.871094 192.597656 C 195.503906 190.597656 197.214844 188.601562 199.457031 187.253906 C 201.457031 186.074219 202.925781 186.804688 203.25 189.089844 C 203.414062 190.109375 203.332031 191.167969 203.210938 192.1875 C 202.230469 199.488281 200.191406 206.585938 198.929688 213.84375 C 198.195312 218.164062 197.828125 222.488281 198.480469 226.851562 C 199.011719 230.195312 200.070312 233.335938 202.640625 235.699219 C 206.226562 239.042969 210.507812 239.65625 215.117188 238.390625 C 219.238281 237.25 222.457031 234.640625 225.3125 231.542969 C 230.492188 225.871094 234.121094 219.265625 237.097656 212.253906 C 237.546875 211.191406 237.789062 210.007812 238.648438 209.152344 C 239.136719 209.480469 239.136719 209.929688 239.175781 210.296875 C 239.667969 214.25 240.402344 218.164062 241.378906 222.039062 C 242.480469 226.363281 243.824219 230.601562 246.191406 234.4375 C 249.085938 239.085938 252.511719 240.105469 257.40625 237.617188 C 260.339844 236.148438 262.871094 234.070312 265.195312 231.746094 C 274.003906 223.058594 280.648438 212.824219 286.234375 201.855469 C 286.765625 200.792969 287.335938 200.425781 288.519531 200.507812 C 292.800781 200.792969 296.878906 200.019531 300.632812 197.777344 C 300.917969 197.613281 301.285156 197.246094 301.609375 197.492188 C 302.019531 197.816406 301.691406 198.265625 301.570312 198.632812 C 300.46875 201.855469 299.449219 205.15625 299.082031 208.582031 C 298.308594 215.390625 298.144531 222.121094 300.550781 228.6875 C 303.730469 237.289062 311.804688 241.125 320.53125 238.1875 C 325.996094 236.351562 329.871094 232.601562 333.089844 227.992188 C 333.539062 227.339844 333.824219 226.117188 334.640625 226.238281 C 335.496094 226.320312 335.375 227.585938 335.621094 228.320312 C 338.066406 236.925781 345.242188 240.839844 353.847656 238.230469 C 360.820312 236.109375 365.714844 231.582031 369.140625 225.34375 C 370.894531 222.160156 371.914062 218.738281 371.464844 215.027344 C 371.300781 213.84375 371.179688 212.375 369.546875 212.171875 C 367.835938 211.96875 367.792969 213.558594 367.425781 214.578125 C 366 218.207031 364.367188 221.714844 362.125 224.933594 C 360.863281 226.730469 359.394531 228.359375 357.476562 229.460938 C 354.664062 231.09375 352.378906 230.15625 351.5625 226.972656 C 351.320312 225.953125 351.238281 224.933594 351.195312 223.875 C 351.074219 218.695312 352.136719 213.640625 353.15625 208.625 C 355.113281 199.164062 357.640625 189.863281 360.535156 180.691406 C 360.941406 179.382812 361.1875 178.078125 361.148438 176.734375 C 361.066406 174.613281 360.003906 173.347656 357.886719 173.0625 C 354.296875 172.574219 350.992188 173.226562 348.058594 175.550781 C 346.179688 177.058594 344.671875 178.894531 343.410156 180.933594 C 343.164062 181.300781 343 181.914062 342.511719 181.914062 C 341.859375 181.871094 341.898438 181.179688 341.734375 180.730469 C 340.308594 176.285156 337.332031 173.554688 332.683594 172.820312 C 330.480469 172.492188 328.238281 172.492188 326.035156 172.902344 C 320.734375 173.921875 316.535156 176.898438 312.742188 180.566406 C 310.253906 182.972656 308.339844 185.949219 305.890625 188.4375 C 302.179688 192.1875 297.941406 194.921875 292.394531 194.878906 C 289.945312 194.839844 289.742188 194.515625 290.597656 192.269531 C 292.800781 186.480469 294.636719 180.609375 295.003906 174.367188 C 295.125 172.371094 295.042969 170.414062 294.636719 168.496094 C 292.882812 160.503906 286.644531 158.261719 279.628906 160.832031 C 273.757812 162.992188 270.863281 167.886719 269.800781 173.714844 C 268.007812 183.707031 270.292969 192.269531 279.425781 198.019531 C 280.28125 198.550781 280.121094 199.121094 279.792969 199.855469 C 276.734375 206.625 273.105469 213.066406 268.742188 219.101562 C 267.070312 221.429688 265.316406 223.671875 263.03125 225.464844 C 260.832031 227.175781 259.484375 226.8125 258.300781 224.28125 C 257.648438 222.894531 257.203125 221.507812 256.917969 220 C 254.796875 209.113281 254.714844 198.0625 254.878906 187.011719 C 254.917969 183.257812 255.203125 179.546875 255.609375 175.835938 C 255.734375 174.574219 255.488281 173.347656 254.019531 173.0625 C 248.882812 172.085938 243.988281 172.902344 241.011719 177.386719 C 239.175781 180.199219 238.15625 183.300781 237.996094 186.601562 C 237.546875 195.695312 235.628906 204.339844 231.429688 212.457031 C 228.984375 217.1875 226.25 221.714844 221.886719 224.976562 C 220.296875 226.15625 218.503906 227.300781 216.421875 226.363281 C 214.300781 225.382812 214.300781 223.222656 214.179688 221.222656 C 214.015625 218.042969 214.628906 214.945312 215.238281 211.804688 C 216.503906 205.117188 218.582031 198.632812 219.601562 191.902344 C 220.296875 187.335938 220.582031 182.808594 218.789062 178.40625 C 217.402344 174.980469 214.871094 173.023438 211.121094 172.695312 C 206.472656 172.289062 202.761719 174.328125 199.296875 177.058594 C 193.503906 181.585938 189.140625 187.417969 185.1875 193.535156 C 184.003906 195.371094 182.863281 197.246094 181.597656 199.285156 C 181.191406 198.511719 181.394531 198.0625 181.515625 197.652344 C 182.371094 194.433594 182.863281 191.167969 183.1875 187.867188 C 183.554688 184.320312 183.757812 180.730469 182.453125 177.265625 C 181.597656 174.941406 179.882812 173.511719 177.4375 173.1875 C 175.765625 172.980469 174.09375 173.0625 172.503906 173.636719 C 169.730469 174.65625 167.8125 175.183594 168.386719 179.261719 C 168.425781 179.464844 168.386719 179.671875 168.386719 179.875 C 167.160156 194.636719 162.757812 208.417969 155.089844 221.0625 C 153.09375 224.363281 150.6875 227.421875 147.015625 229.054688 C 143.550781 230.601562 141.347656 229.257812 140.980469 225.464844 C 140.738281 222.9375 140.859375 220.367188 141.183594 217.878906 C 142.980469 205.320312 146.40625 193.128906 150.074219 181.058594 C 150.402344 179.957031 150.726562 178.855469 150.851562 177.710938 C 151.09375 175.183594 149.910156 173.59375 147.425781 173.226562 C 143.835938 172.695312 140.53125 173.429688 137.636719 175.714844 C 135.84375 177.140625 134.417969 178.9375 133.152344 180.851562 C 132.867188 181.300781 132.664062 182.074219 132.050781 181.996094 C 131.4375 181.871094 131.480469 181.097656 131.277344 180.566406 C 129.605469 175.753906 126.136719 173.1875 121.121094 172.738281 C 115.78125 172.289062 111.089844 173.960938 106.847656 177.019531 C 99.140625 182.605469 94.25 190.230469 91.027344 199.039062 C 87.804688 207.808594 83.605469 216.046875 77.53125 223.222656 C 71.574219 230.277344 64.601562 235.863281 55.140625 237.371094 C 45.476562 238.921875 37.117188 236.515625 30.917969 228.484375 C 27.085938 223.507812 25.167969 217.675781 24.3125 211.558594 C 21.011719 188.316406 27.410156 168.046875 43.683594 151.042969 C 48.820312 145.660156 54.980469 141.542969 62.480469 140.113281 C 70.761719 138.523438 78.140625 141.910156 78.996094 152.144531 C 79.363281 156.671875 78.34375 160.871094 76.511719 164.988281 C 75.53125 167.152344 74.183594 169.148438 73.53125 171.472656 C 72.960938 173.511719 73.859375 174.734375 75.9375 174.816406 C 78.46875 174.941406 80.75 174.082031 82.832031 172.738281 C 88.375 169.191406 91.273438 163.929688 92.578125 157.609375 C 94.289062 149.289062 90.945312 141.175781 83.808594 136.566406 C 78.101562 132.855469 71.699219 131.796875 65.09375 131.753906 C 54.53125 131.714844 44.945312 134.9375 36.34375 140.765625 C 19.625 152.0625 9.714844 167.886719 6.207031 187.703125 C 3.921875 200.507812 4.699219 213.148438 9.632812 225.300781 C 14.527344 237.289062 23.292969 244.957031 36.140625 247.730469 Z M 315.027344 214.453125 C 316.085938 204.789062 319.023438 195.738281 324.648438 187.703125 C 326.078125 185.664062 327.832031 183.871094 330.03125 182.605469 C 333.664062 180.527344 337.128906 181.75 338.472656 185.707031 C 339.25 187.988281 339.410156 190.355469 339.371094 192.761719 C 339.207031 200.425781 337.371094 207.726562 334.558594 214.78125 C 333.132812 218.410156 331.378906 221.875 328.972656 224.976562 C 328.15625 225.996094 327.261719 226.933594 326.242188 227.707031 C 322.488281 230.5625 318.289062 229.460938 316.453125 225.097656 C 315.027344 221.714844 314.617188 218.125 315.027344 214.453125 Z M 279.058594 178.285156 C 279.058594 174.941406 279.386719 172.25 280.773438 169.761719 C 281.425781 168.539062 282.28125 167.4375 283.871094 167.640625 C 285.542969 167.84375 286.074219 169.148438 286.480469 170.578125 C 286.929688 172.207031 286.847656 173.878906 286.683594 175.511719 C 286.234375 180.039062 285.296875 184.480469 283.992188 188.84375 C 283.871094 189.292969 283.832031 189.863281 283.339844 189.988281 C 282.730469 190.109375 282.484375 189.457031 282.238281 189.050781 C 279.914062 185.664062 279.140625 181.789062 279.058594 178.285156 Z M 104.890625 212.457031 C 106.195312 203.445312 108.96875 194.921875 114.433594 187.457031 C 115.863281 185.460938 117.613281 183.789062 119.777344 182.566406 C 123.160156 180.691406 126.261719 181.628906 127.890625 185.132812 C 129.074219 187.664062 129.035156 190.355469 129.113281 193.085938 C 128.421875 204.382812 125.484375 214.984375 119.082031 224.484375 C 118.269531 225.710938 117.25 226.730469 116.105469 227.625 C 112.152344 230.765625 107.664062 229.542969 105.910156 224.773438 C 104.363281 220.734375 104.28125 216.617188 104.890625 212.457031 Z M 104.890625 212.457031 " fill-opacity="1" fill-rule="nonzero"/></svg>