<svg xmlns="http://www.w3.org/2000/svg" xmlns:xlink="http://www.w3.org/1999/xlink" width="500" zoomAndPan="magnify" viewBox="0 0 375 374.999991" height="500" preserveAspectRatio="xMidYMid meet" version="1.0"><path fill="#e1e8f3" d="M 85.171875 242.976562 C 53.5 214.554688 50.777344 162.140625 85.179688 130.6875 C 74.566406 120.734375 67.179688 108.875 63.019531 94.816406 C 52.5625 59.5 72.410156 18.566406 107.074219 5.9375 C 115.476562 2.878906 124.703125 0.710938 133.589844 0.578125 C 171.796875 0 210.023438 0.117188 248.238281 0.390625 C 283.921875 0.648438 314.863281 27.097656 320.34375 62.347656 C 324.207031 87.179688 317.683594 109.234375 299.847656 127.46875 C 298.792969 128.546875 297.496094 129.386719 296.121094 130.496094 C 311.386719 145.339844 320.40625 162.324219 321.214844 183.386719 C 321.929688 201.921875 316.871094 218.394531 305.570312 233.011719 C 287 257.027344 249.484375 272.355469 209.957031 252.121094 C 209.871094 253.890625 209.75 255.453125 209.726562 257.011719 C 209.488281 273.6875 210.136719 290.425781 208.855469 307.019531 C 206.480469 337.859375 182.4375 364.667969 152.4375 371.488281 C 120.558594 378.738281 87.707031 365.136719 71.429688 337.953125 C 53.191406 307.496094 57.671875 270.992188 82.753906 245.605469 C 83.589844 244.761719 84.367188 243.855469 85.171875 242.976562 Z M 171.945312 224.175781 L 171.945312 149.625 C 159.148438 149.625 146.726562 149.578125 134.304688 149.636719 C 114.8125 149.722656 98.398438 165.753906 97.707031 185.304688 C 97 205.308594 112.019531 222.988281 131.542969 224.039062 C 144.835938 224.753906 158.199219 224.175781 171.945312 224.175781 Z M 210.046875 112.121094 C 222.863281 112.121094 235.121094 112.226562 247.378906 112.097656 C 267.808594 111.886719 283.949219 95.726562 284.207031 75.382812 C 284.226562 74.171875 284.183594 72.960938 284.085938 71.753906 C 283.984375 70.546875 283.824219 69.34375 283.605469 68.152344 C 283.386719 66.960938 283.113281 65.78125 282.777344 64.613281 C 282.445312 63.449219 282.054688 62.300781 281.609375 61.175781 C 281.164062 60.046875 280.660156 58.945312 280.109375 57.867188 C 279.554688 56.789062 278.949219 55.738281 278.289062 54.71875 C 277.632812 53.699219 276.925781 52.714844 276.171875 51.765625 C 275.421875 50.816406 274.621094 49.90625 273.777344 49.035156 C 272.9375 48.164062 272.050781 47.335938 271.128906 46.550781 C 270.203125 45.765625 269.242188 45.027344 268.246094 44.335938 C 267.25 43.644531 266.222656 43.003906 265.164062 42.414062 C 264.101562 41.824219 263.015625 41.289062 261.90625 40.804688 C 260.792969 40.320312 259.660156 39.894531 258.507812 39.519531 C 257.351562 39.148438 256.183594 38.832031 255 38.574219 C 253.8125 38.316406 252.617188 38.117188 251.414062 37.976562 C 250.210938 37.835938 249.003906 37.757812 247.789062 37.734375 C 235.976562 37.511719 224.152344 37.683594 212.332031 37.695312 C 211.621094 37.695312 210.90625 37.886719 210.046875 38.007812 Z M 171.742188 37.863281 C 157.945312 37.863281 144.433594 37.035156 131.0625 38.054688 C 110.828125 39.597656 96.605469 57.128906 97.753906 77.507812 C 98.84375 96.867188 115.023438 112 134.792969 112.109375 C 143.128906 112.15625 151.464844 112.121094 159.800781 112.121094 L 171.742188 112.121094 Z M 171.648438 261.726562 C 159.421875 261.726562 147.167969 261.34375 134.957031 261.898438 C 129.363281 262.15625 123.46875 263.402344 118.375 265.683594 C 102.765625 272.660156 94.421875 291.273438 98.734375 307.890625 C 103.261719 325.351562 118.871094 336.929688 136.785156 336.113281 C 154.195312 335.320312 169.882812 322.199219 171.394531 305.144531 C 172.644531 291.046875 171.648438 276.753906 171.648438 261.726562 Z M 209.828125 186.941406 C 209.832031 207.761719 226.238281 224.269531 246.9375 224.277344 C 267.429688 224.28125 284.21875 207.445312 284.214844 186.894531 C 284.210938 185.671875 284.152344 184.453125 284.03125 183.238281 C 283.910156 182.023438 283.730469 180.816406 283.488281 179.617188 C 283.25 178.421875 282.953125 177.238281 282.597656 176.070312 C 282.242188 174.902344 281.828125 173.753906 281.359375 172.625 C 280.890625 171.496094 280.371094 170.394531 279.792969 169.316406 C 279.214844 168.242188 278.589844 167.195312 277.910156 166.179688 C 277.230469 165.164062 276.5 164.1875 275.726562 163.242188 C 274.949219 162.300781 274.128906 161.394531 273.265625 160.535156 C 272.402344 159.671875 271.496094 158.851562 270.554688 158.078125 C 269.609375 157.304688 268.628906 156.578125 267.613281 155.898438 C 266.597656 155.222656 265.550781 154.59375 264.472656 154.019531 C 263.394531 153.445312 262.289062 152.925781 261.160156 152.457031 C 260.035156 151.992188 258.882812 151.582031 257.714844 151.226562 C 256.546875 150.875 255.363281 150.578125 254.164062 150.339844 C 252.964844 150.101562 251.761719 149.925781 250.542969 149.804688 C 249.328125 149.6875 248.109375 149.628906 246.890625 149.628906 C 226.128906 149.644531 209.820312 166.0625 209.828125 186.941406 Z M 209.828125 186.941406 " fill-opacity="1" fill-rule="nonzero"/></svg>