<svg xmlns="http://www.w3.org/2000/svg" xmlns:xlink="http://www.w3.org/1999/xlink" width="500" zoomAndPan="magnify" viewBox="0 0 375 374.999991" height="500" preserveAspectRatio="xMidYMid meet" version="1.0"><defs><clipPath id="3e2eb1fc9c"><path d="M 20.390625 0 L 354.890625 0 L 354.890625 375 L 20.390625 375 Z M 20.390625 0 " clip-rule="nonzero"/></clipPath></defs><g clip-path="url(#3e2eb1fc9c)"><path fill="#e1e8f3" d="M 352.773438 3.109375 C 351.226562 1.425781 349.054688 0.46875 346.769531 0.46875 L 29.042969 0.46875 C 26.757812 0.46875 24.585938 1.425781 23.042969 3.109375 C 21.496094 4.792969 20.742188 7.054688 20.945312 9.324219 L 49.566406 329.9375 C 49.867188 333.289062 52.203125 336.109375 55.4375 337.035156 L 185.636719 374.222656 C 186.363281 374.425781 187.109375 374.53125 187.867188 374.53125 C 188.621094 374.53125 189.371094 374.425781 190.09375 374.222656 L 320.398438 337.035156 C 323.636719 336.109375 325.96875 333.289062 326.269531 329.9375 L 354.878906 9.324219 C 355.074219 7.046875 354.308594 4.792969 352.773438 3.109375 Z M 284.246094 113.65625 L 131.277344 113.65625 L 134.910156 155.046875 L 280.5625 155.046875 L 269.640625 277.347656 L 187.859375 302.078125 L 187.050781 301.832031 L 106.207031 277.339844 L 101.796875 227.492188 L 141.390625 227.492188 L 143.132812 246.847656 L 188.3125 256.3125 L 232.6875 246.828125 L 237.414062 194.5 L 98.820312 194.5 L 88.082031 74.09375 L 287.789062 74.09375 Z M 284.246094 113.65625 " fill-opacity="1" fill-rule="nonzero"/></g></svg>