<svg xmlns="http://www.w3.org/2000/svg" xmlns:xlink="http://www.w3.org/1999/xlink" width="500" zoomAndPan="magnify" viewBox="0 0 375 374.999991" height="500" preserveAspectRatio="xMidYMid meet" version="1.0"><defs><clipPath id="cd7dabd506"><path d="M 15.46875 0 L 359.71875 0 L 359.71875 375 L 15.46875 375 Z M 15.46875 0 " clip-rule="nonzero"/></clipPath></defs><g clip-path="url(#cd7dabd506)"><path fill="#e1e8f3" d="M 357.8125 3.125 C 356.25 1.5625 354.6875 0 351.5625 0 L 23.4375 0 C 21.875 0 18.75 1.5625 17.1875 3.125 C 15.625 4.6875 15.625 6.25 15.625 9.375 L 46.875 321.875 C 46.875 325 50 328.125 51.5625 328.125 L 192.1875 375 C 193.75 375 193.75 375 195.3125 375 C 196.875 375 196.875 375 198.4375 375 L 323.4375 328.125 C 326.5625 326.5625 328.125 325 328.125 321.875 L 359.375 9.375 C 359.375 7.8125 359.375 4.6875 357.8125 3.125 Z M 184.375 289.0625 C 182.8125 290.625 181.25 290.625 179.6875 290.625 C 179.6875 290.625 178.125 290.625 178.125 290.625 L 123.4375 275 C 120.3125 273.4375 118.75 271.875 117.1875 268.75 L 109.375 229.6875 C 107.8125 225 110.9375 221.875 115.625 220.3125 C 120.3125 218.75 123.4375 221.875 125 226.5625 L 131.25 260.9375 L 171.875 271.875 L 171.875 95.3125 L 85.9375 95.3125 C 81.25 95.3125 78.125 92.1875 78.125 87.5 C 78.125 82.8125 81.25 79.6875 85.9375 79.6875 L 179.6875 79.6875 C 184.375 79.6875 187.5 82.8125 187.5 87.5 L 187.5 282.8125 C 187.5 284.375 185.9375 287.5 184.375 289.0625 Z M 296.875 89.0625 L 289.0625 120.3125 C 287.5 125 284.375 126.5625 279.6875 126.5625 C 275 125 273.4375 121.875 273.4375 117.1875 L 278.125 95.3125 L 217.1875 95.3125 L 217.1875 173.4375 L 271.875 173.4375 C 273.4375 173.4375 276.5625 175 278.125 176.5625 C 279.6875 178.125 279.6875 181.25 279.6875 182.8125 L 264.0625 268.75 C 264.0625 271.875 260.9375 273.4375 259.375 275 L 212.5 290.625 C 210.9375 290.625 210.9375 290.625 209.375 290.625 C 206.25 290.625 203.125 289.0625 201.5625 285.9375 C 200 281.25 203.125 278.125 206.25 276.5625 L 248.4375 262.5 L 260.9375 190.625 L 207.8125 190.625 C 203.125 190.625 200 187.5 200 182.8125 L 200 89.0625 C 200 84.375 203.125 81.25 207.8125 81.25 L 285.9375 81.25 C 289.0625 81.25 290.625 82.8125 292.1875 84.375 C 296.875 84.375 296.875 87.5 296.875 89.0625 Z M 296.875 89.0625 " fill-opacity="1" fill-rule="nonzero"/></g></svg>