<svg xmlns="http://www.w3.org/2000/svg" xmlns:xlink="http://www.w3.org/1999/xlink" width="500" zoomAndPan="magnify" viewBox="0 0 375 374.999991" height="500" preserveAspectRatio="xMidYMid meet" version="1.0"><defs><clipPath id="bacfad8399"><path d="M 15 17 L 232 17 L 232 142 L 15 142 Z M 15 17 " clip-rule="nonzero"/></clipPath><clipPath id="9e98f15c80"><path d="M -15.25 59.394531 L 331.605469 -18.539062 L 409.863281 329.777344 L 63.011719 407.710938 Z M -15.25 59.394531 " clip-rule="nonzero"/></clipPath><clipPath id="704e751abc"><path d="M -15.25 59.394531 L 331.605469 -18.539062 L 409.863281 329.777344 L 63.011719 407.710938 Z M -15.25 59.394531 " clip-rule="nonzero"/></clipPath><clipPath id="de27b7e2bb"><path d="M 42 57 L 341 57 L 341 298 L 42 298 Z M 42 57 " clip-rule="nonzero"/></clipPath><clipPath id="a7be2eff03"><path d="M -15.25 59.394531 L 331.605469 -18.539062 L 409.863281 329.777344 L 63.011719 407.710938 Z M -15.25 59.394531 " clip-rule="nonzero"/></clipPath><clipPath id="f7e9d3cfe5"><path d="M -15.25 59.394531 L 331.605469 -18.539062 L 409.863281 329.777344 L 63.011719 407.710938 Z M -15.25 59.394531 " clip-rule="nonzero"/></clipPath><clipPath id="1ea09eb08c"><path d="M 129 104 L 320 104 L 320 366 L 129 366 Z M 129 104 " clip-rule="nonzero"/></clipPath><clipPath id="d5b023b480"><path d="M -15.25 59.394531 L 331.605469 -18.539062 L 409.863281 329.777344 L 63.011719 407.710938 Z M -15.25 59.394531 " clip-rule="nonzero"/></clipPath><clipPath id="f4262974cd"><path d="M -15.25 59.394531 L 331.605469 -18.539062 L 409.863281 329.777344 L 63.011719 407.710938 Z M -15.25 59.394531 " clip-rule="nonzero"/></clipPath><clipPath id="af3186f97f"><path d="M 126 102 L 323 102 L 323 369 L 126 369 Z M 126 102 " clip-rule="nonzero"/></clipPath><clipPath id="8d866141b1"><path d="M -15.25 59.394531 L 331.605469 -18.539062 L 409.863281 329.777344 L 63.011719 407.710938 Z M -15.25 59.394531 " clip-rule="nonzero"/></clipPath><clipPath id="f430ac2e06"><path d="M -15.25 59.394531 L 331.605469 -18.539062 L 409.863281 329.777344 L 63.011719 407.710938 Z M -15.25 59.394531 " clip-rule="nonzero"/></clipPath><clipPath id="ed3e8d1f17"><path d="M 63 291 L 95 291 L 95 327 L 63 327 Z M 63 291 " clip-rule="nonzero"/></clipPath><clipPath id="06e1e3e82b"><path d="M -15.25 59.394531 L 331.605469 -18.539062 L 409.863281 329.777344 L 63.011719 407.710938 Z M -15.25 59.394531 " clip-rule="nonzero"/></clipPath><clipPath id="3c04de2954"><path d="M -15.25 59.394531 L 331.605469 -18.539062 L 409.863281 329.777344 L 63.011719 407.710938 Z M -15.25 59.394531 " clip-rule="nonzero"/></clipPath><clipPath id="be8002011b"><path d="M 61 289 L 97 289 L 97 329 L 61 329 Z M 61 289 " clip-rule="nonzero"/></clipPath><clipPath id="4d36d311d9"><path d="M -15.25 59.394531 L 331.605469 -18.539062 L 409.863281 329.777344 L 63.011719 407.710938 Z M -15.25 59.394531 " clip-rule="nonzero"/></clipPath><clipPath id="0f50efdea1"><path d="M -15.25 59.394531 L 331.605469 -18.539062 L 409.863281 329.777344 L 63.011719 407.710938 Z M -15.25 59.394531 " clip-rule="nonzero"/></clipPath><clipPath id="36c451a13f"><path d="M 337 136 L 368 136 L 368 172 L 337 172 Z M 337 136 " clip-rule="nonzero"/></clipPath><clipPath id="971de89bbd"><path d="M -15.25 59.394531 L 331.605469 -18.539062 L 409.863281 329.777344 L 63.011719 407.710938 Z M -15.25 59.394531 " clip-rule="nonzero"/></clipPath><clipPath id="13b0a44cb7"><path d="M -15.25 59.394531 L 331.605469 -18.539062 L 409.863281 329.777344 L 63.011719 407.710938 Z M -15.25 59.394531 " clip-rule="nonzero"/></clipPath><clipPath id="35ac582247"><path d="M 334 134 L 371 134 L 371 174 L 334 174 Z M 334 134 " clip-rule="nonzero"/></clipPath><clipPath id="24bdb16c5e"><path d="M -15.25 59.394531 L 331.605469 -18.539062 L 409.863281 329.777344 L 63.011719 407.710938 Z M -15.25 59.394531 " clip-rule="nonzero"/></clipPath><clipPath id="5300a23a89"><path d="M -15.25 59.394531 L 331.605469 -18.539062 L 409.863281 329.777344 L 63.011719 407.710938 Z M -15.25 59.394531 " clip-rule="nonzero"/></clipPath><clipPath id="fb743b827e"><path d="M 224 10 L 249 10 L 249 36 L 224 36 Z M 224 10 " clip-rule="nonzero"/></clipPath><clipPath id="bc68b4d416"><path d="M -15.25 59.394531 L 331.605469 -18.539062 L 409.863281 329.777344 L 63.011719 407.710938 Z M -15.25 59.394531 " clip-rule="nonzero"/></clipPath><clipPath id="444ef8dbda"><path d="M -15.25 59.394531 L 331.605469 -18.539062 L 409.863281 329.777344 L 63.011719 407.710938 Z M -15.25 59.394531 " clip-rule="nonzero"/></clipPath><clipPath id="7dad1e4e28"><path d="M 221 7 L 251 7 L 251 38 L 221 38 Z M 221 7 " clip-rule="nonzero"/></clipPath><clipPath id="beeca5fe05"><path d="M -15.25 59.394531 L 331.605469 -18.539062 L 409.863281 329.777344 L 63.011719 407.710938 Z M -15.25 59.394531 " clip-rule="nonzero"/></clipPath><clipPath id="097de4097e"><path d="M -15.25 59.394531 L 331.605469 -18.539062 L 409.863281 329.777344 L 63.011719 407.710938 Z M -15.25 59.394531 " clip-rule="nonzero"/></clipPath><clipPath id="da8d5919be"><path d="M 116 65 L 148 65 L 148 101 L 116 101 Z M 116 65 " clip-rule="nonzero"/></clipPath><clipPath id="d0c6f87cd4"><path d="M -15.25 59.394531 L 331.605469 -18.539062 L 409.863281 329.777344 L 63.011719 407.710938 Z M -15.25 59.394531 " clip-rule="nonzero"/></clipPath><clipPath id="9087462d4f"><path d="M -15.25 59.394531 L 331.605469 -18.539062 L 409.863281 329.777344 L 63.011719 407.710938 Z M -15.25 59.394531 " clip-rule="nonzero"/></clipPath><clipPath id="1d1296fd78"><path d="M 113 63 L 150 63 L 150 103 L 113 103 Z M 113 63 " clip-rule="nonzero"/></clipPath><clipPath id="64aa7c4c26"><path d="M -15.25 59.394531 L 331.605469 -18.539062 L 409.863281 329.777344 L 63.011719 407.710938 Z M -15.25 59.394531 " clip-rule="nonzero"/></clipPath><clipPath id="17e50b31bb"><path d="M -15.25 59.394531 L 331.605469 -18.539062 L 409.863281 329.777344 L 63.011719 407.710938 Z M -15.25 59.394531 " clip-rule="nonzero"/></clipPath><clipPath id="6f7b00ca43"><path d="M 11 130 L 36 130 L 36 156 L 11 156 Z M 11 130 " clip-rule="nonzero"/></clipPath><clipPath id="c2fd86c17c"><path d="M -15.25 59.394531 L 331.605469 -18.539062 L 409.863281 329.777344 L 63.011719 407.710938 Z M -15.25 59.394531 " clip-rule="nonzero"/></clipPath><clipPath id="b2b7dc05f8"><path d="M -15.25 59.394531 L 331.605469 -18.539062 L 409.863281 329.777344 L 63.011719 407.710938 Z M -15.25 59.394531 " clip-rule="nonzero"/></clipPath><clipPath id="09617aae4f"><path d="M 8 128 L 39 128 L 39 158 L 8 158 Z M 8 128 " clip-rule="nonzero"/></clipPath><clipPath id="11264a7747"><path d="M -15.25 59.394531 L 331.605469 -18.539062 L 409.863281 329.777344 L 63.011719 407.710938 Z M -15.25 59.394531 " clip-rule="nonzero"/></clipPath><clipPath id="7842b12970"><path d="M -15.25 59.394531 L 331.605469 -18.539062 L 409.863281 329.777344 L 63.011719 407.710938 Z M -15.25 59.394531 " clip-rule="nonzero"/></clipPath><clipPath id="a41f476aa5"><path d="M 56 290 L 87 290 L 87 321 L 56 321 Z M 56 290 " clip-rule="nonzero"/></clipPath><clipPath id="6021cd119d"><path d="M -15.25 59.394531 L 331.605469 -18.539062 L 409.863281 329.777344 L 63.011719 407.710938 Z M -15.25 59.394531 " clip-rule="nonzero"/></clipPath><clipPath id="b3dd6ee64d"><path d="M -15.25 59.394531 L 331.605469 -18.539062 L 409.863281 329.777344 L 63.011719 407.710938 Z M -15.25 59.394531 " clip-rule="nonzero"/></clipPath><clipPath id="850e639d94"><path d="M 53 287 L 89 287 L 89 324 L 53 324 Z M 53 287 " clip-rule="nonzero"/></clipPath><clipPath id="2351daa86a"><path d="M -15.25 59.394531 L 331.605469 -18.539062 L 409.863281 329.777344 L 63.011719 407.710938 Z M -15.25 59.394531 " clip-rule="nonzero"/></clipPath><clipPath id="081f24a385"><path d="M -15.25 59.394531 L 331.605469 -18.539062 L 409.863281 329.777344 L 63.011719 407.710938 Z M -15.25 59.394531 " clip-rule="nonzero"/></clipPath><clipPath id="1730dce04c"><path d="M 329 135 L 361 135 L 361 166 L 329 166 Z M 329 135 " clip-rule="nonzero"/></clipPath><clipPath id="73d0955c0b"><path d="M -15.25 59.394531 L 331.605469 -18.539062 L 409.863281 329.777344 L 63.011719 407.710938 Z M -15.25 59.394531 " clip-rule="nonzero"/></clipPath><clipPath id="3330c65e7a"><path d="M -15.25 59.394531 L 331.605469 -18.539062 L 409.863281 329.777344 L 63.011719 407.710938 Z M -15.25 59.394531 " clip-rule="nonzero"/></clipPath><clipPath id="5ece8c9f2c"><path d="M 327 132 L 363 132 L 363 169 L 327 169 Z M 327 132 " clip-rule="nonzero"/></clipPath><clipPath id="a5ce7f5be0"><path d="M -15.25 59.394531 L 331.605469 -18.539062 L 409.863281 329.777344 L 63.011719 407.710938 Z M -15.25 59.394531 " clip-rule="nonzero"/></clipPath><clipPath id="7e19f12c52"><path d="M -15.25 59.394531 L 331.605469 -18.539062 L 409.863281 329.777344 L 63.011719 407.710938 Z M -15.25 59.394531 " clip-rule="nonzero"/></clipPath><clipPath id="d175db6bee"><path d="M 108 64 L 140 64 L 140 95 L 108 95 Z M 108 64 " clip-rule="nonzero"/></clipPath><clipPath id="b567c2a46a"><path d="M -15.25 59.394531 L 331.605469 -18.539062 L 409.863281 329.777344 L 63.011719 407.710938 Z M -15.25 59.394531 " clip-rule="nonzero"/></clipPath><clipPath id="1be9911535"><path d="M -15.25 59.394531 L 331.605469 -18.539062 L 409.863281 329.777344 L 63.011719 407.710938 Z M -15.25 59.394531 " clip-rule="nonzero"/></clipPath><clipPath id="a83824588c"><path d="M 106 61 L 142 61 L 142 98 L 106 98 Z M 106 61 " clip-rule="nonzero"/></clipPath><clipPath id="f08e4db279"><path d="M -15.25 59.394531 L 331.605469 -18.539062 L 409.863281 329.777344 L 63.011719 407.710938 Z M -15.25 59.394531 " clip-rule="nonzero"/></clipPath><clipPath id="641f160a47"><path d="M -15.25 59.394531 L 331.605469 -18.539062 L 409.863281 329.777344 L 63.011719 407.710938 Z M -15.25 59.394531 " clip-rule="nonzero"/></clipPath><clipPath id="a8c811406e"><path d="M 7 129 L 29 129 L 29 151 L 7 151 Z M 7 129 " clip-rule="nonzero"/></clipPath><clipPath id="29102f1688"><path d="M -15.25 59.394531 L 331.605469 -18.539062 L 409.863281 329.777344 L 63.011719 407.710938 Z M -15.25 59.394531 " clip-rule="nonzero"/></clipPath><clipPath id="7a523dcce7"><path d="M -15.25 59.394531 L 331.605469 -18.539062 L 409.863281 329.777344 L 63.011719 407.710938 Z M -15.25 59.394531 " clip-rule="nonzero"/></clipPath><clipPath id="547f288e6c"><path d="M 4 126 L 31 126 L 31 153 L 4 153 Z M 4 126 " clip-rule="nonzero"/></clipPath><clipPath id="bcceb15d4b"><path d="M -15.25 59.394531 L 331.605469 -18.539062 L 409.863281 329.777344 L 63.011719 407.710938 Z M -15.25 59.394531 " clip-rule="nonzero"/></clipPath><clipPath id="cb2b8e6d08"><path d="M -15.25 59.394531 L 331.605469 -18.539062 L 409.863281 329.777344 L 63.011719 407.710938 Z M -15.25 59.394531 " clip-rule="nonzero"/></clipPath><clipPath id="3ded041cfd"><path d="M 219 8 L 241 8 L 241 30 L 219 30 Z M 219 8 " clip-rule="nonzero"/></clipPath><clipPath id="a17a95e099"><path d="M -15.25 59.394531 L 331.605469 -18.539062 L 409.863281 329.777344 L 63.011719 407.710938 Z M -15.25 59.394531 " clip-rule="nonzero"/></clipPath><clipPath id="c7f02f040c"><path d="M -15.25 59.394531 L 331.605469 -18.539062 L 409.863281 329.777344 L 63.011719 407.710938 Z M -15.25 59.394531 " clip-rule="nonzero"/></clipPath><clipPath id="616b0b1824"><path d="M 217 6 L 244 6 L 244 33 L 217 33 Z M 217 6 " clip-rule="nonzero"/></clipPath><clipPath id="fbbb61eafb"><path d="M -15.25 59.394531 L 331.605469 -18.539062 L 409.863281 329.777344 L 63.011719 407.710938 Z M -15.25 59.394531 " clip-rule="nonzero"/></clipPath><clipPath id="c23f478802"><path d="M -15.25 59.394531 L 331.605469 -18.539062 L 409.863281 329.777344 L 63.011719 407.710938 Z M -15.25 59.394531 " clip-rule="nonzero"/></clipPath><clipPath id="6d8b499c63"><path d="M 126 99 L 284 99 L 284 336 L 126 336 Z M 126 99 " clip-rule="nonzero"/></clipPath><clipPath id="70cc3a52c7"><path d="M -15.25 59.394531 L 331.605469 -18.539062 L 409.863281 329.777344 L 63.011719 407.710938 Z M -15.25 59.394531 " clip-rule="nonzero"/></clipPath><clipPath id="50cafb7c73"><path d="M -15.25 59.394531 L 331.605469 -18.539062 L 409.863281 329.777344 L 63.011719 407.710938 Z M -15.25 59.394531 " clip-rule="nonzero"/></clipPath><clipPath id="15d7dc9b1e"><path d="M 123 97 L 286 97 L 286 339 L 123 339 Z M 123 97 " clip-rule="nonzero"/></clipPath><clipPath id="eb63ef0f87"><path d="M -15.25 59.394531 L 331.605469 -18.539062 L 409.863281 329.777344 L 63.011719 407.710938 Z M -15.25 59.394531 " clip-rule="nonzero"/></clipPath><clipPath id="2500e404ff"><path d="M -15.25 59.394531 L 331.605469 -18.539062 L 409.863281 329.777344 L 63.011719 407.710938 Z M -15.25 59.394531 " clip-rule="nonzero"/></clipPath><clipPath id="e52432cde0"><path d="M 261 210 L 267 210 L 267 244 L 261 244 Z M 261 210 " clip-rule="nonzero"/></clipPath><clipPath id="8454006be2"><path d="M -15.25 59.394531 L 331.605469 -18.539062 L 409.863281 329.777344 L 63.011719 407.710938 Z M -15.25 59.394531 " clip-rule="nonzero"/></clipPath><clipPath id="9b9554d297"><path d="M -15.25 59.394531 L 331.605469 -18.539062 L 409.863281 329.777344 L 63.011719 407.710938 Z M -15.25 59.394531 " clip-rule="nonzero"/></clipPath><clipPath id="3c8b25de65"><path d="M 217 149 L 237 149 L 237 164 L 217 164 Z M 217 149 " clip-rule="nonzero"/></clipPath><clipPath id="d0dde6619a"><path d="M -15.25 59.394531 L 331.605469 -18.539062 L 409.863281 329.777344 L 63.011719 407.710938 Z M -15.25 59.394531 " clip-rule="nonzero"/></clipPath><clipPath id="7ff2f2403b"><path d="M -15.25 59.394531 L 331.605469 -18.539062 L 409.863281 329.777344 L 63.011719 407.710938 Z M -15.25 59.394531 " clip-rule="nonzero"/></clipPath><clipPath id="e6f5d8e041"><path d="M 193 236 L 217 236 L 217 245 L 193 245 Z M 193 236 " clip-rule="nonzero"/></clipPath><clipPath id="936903563f"><path d="M -15.25 59.394531 L 331.605469 -18.539062 L 409.863281 329.777344 L 63.011719 407.710938 Z M -15.25 59.394531 " clip-rule="nonzero"/></clipPath><clipPath id="f321b54041"><path d="M -15.25 59.394531 L 331.605469 -18.539062 L 409.863281 329.777344 L 63.011719 407.710938 Z M -15.25 59.394531 " clip-rule="nonzero"/></clipPath><clipPath id="ff7968c655"><path d="M 133 141 L 139 141 L 139 176 L 133 176 Z M 133 141 " clip-rule="nonzero"/></clipPath><clipPath id="67efaef8c3"><path d="M -15.25 59.394531 L 331.605469 -18.539062 L 409.863281 329.777344 L 63.011719 407.710938 Z M -15.25 59.394531 " clip-rule="nonzero"/></clipPath><clipPath id="920c347108"><path d="M -15.25 59.394531 L 331.605469 -18.539062 L 409.863281 329.777344 L 63.011719 407.710938 Z M -15.25 59.394531 " clip-rule="nonzero"/></clipPath><clipPath id="24928bf454"><path d="M 156 261 L 184 261 L 184 281 L 156 281 Z M 156 261 " clip-rule="nonzero"/></clipPath><clipPath id="db3e96cc8d"><path d="M -15.25 59.394531 L 331.605469 -18.539062 L 409.863281 329.777344 L 63.011719 407.710938 Z M -15.25 59.394531 " clip-rule="nonzero"/></clipPath><clipPath id="161bfad0ae"><path d="M -15.25 59.394531 L 331.605469 -18.539062 L 409.863281 329.777344 L 63.011719 407.710938 Z M -15.25 59.394531 " clip-rule="nonzero"/></clipPath><clipPath id="32a0971655"><path d="M 194 286 L 211 286 L 211 298 L 194 298 Z M 194 286 " clip-rule="nonzero"/></clipPath><clipPath id="b181524b75"><path d="M -15.25 59.394531 L 331.605469 -18.539062 L 409.863281 329.777344 L 63.011719 407.710938 Z M -15.25 59.394531 " clip-rule="nonzero"/></clipPath><clipPath id="7f4dfc934a"><path d="M -15.25 59.394531 L 331.605469 -18.539062 L 409.863281 329.777344 L 63.011719 407.710938 Z M -15.25 59.394531 " clip-rule="nonzero"/></clipPath><clipPath id="87e0c7db48"><path d="M 207 272 L 297 272 L 297 338 L 207 338 Z M 207 272 " clip-rule="nonzero"/></clipPath><clipPath id="b7a40a72c5"><path d="M -15.25 59.394531 L 331.605469 -18.539062 L 409.863281 329.777344 L 63.011719 407.710938 Z M -15.25 59.394531 " clip-rule="nonzero"/></clipPath><clipPath id="e363b659f5"><path d="M -15.25 59.394531 L 331.605469 -18.539062 L 409.863281 329.777344 L 63.011719 407.710938 Z M -15.25 59.394531 " clip-rule="nonzero"/></clipPath><clipPath id="1b3ec46ac7"><path d="M 205 269 L 300 269 L 300 340 L 205 340 Z M 205 269 " clip-rule="nonzero"/></clipPath><clipPath id="8e3ebbcac0"><path d="M -15.25 59.394531 L 331.605469 -18.539062 L 409.863281 329.777344 L 63.011719 407.710938 Z M -15.25 59.394531 " clip-rule="nonzero"/></clipPath><clipPath id="640990258d"><path d="M -15.25 59.394531 L 331.605469 -18.539062 L 409.863281 329.777344 L 63.011719 407.710938 Z M -15.25 59.394531 " clip-rule="nonzero"/></clipPath><clipPath id="781238253e"><path d="M 212 286 L 312 286 L 312 361 L 212 361 Z M 212 286 " clip-rule="nonzero"/></clipPath><clipPath id="632ce272f2"><path d="M -15.25 59.394531 L 331.605469 -18.539062 L 409.863281 329.777344 L 63.011719 407.710938 Z M -15.25 59.394531 " clip-rule="nonzero"/></clipPath><clipPath id="e597e429b5"><path d="M -15.25 59.394531 L 331.605469 -18.539062 L 409.863281 329.777344 L 63.011719 407.710938 Z M -15.25 59.394531 " clip-rule="nonzero"/></clipPath><clipPath id="93d6c2b718"><path d="M 210 284 L 315 284 L 315 363 L 210 363 Z M 210 284 " clip-rule="nonzero"/></clipPath><clipPath id="f3edbe8b36"><path d="M -15.25 59.394531 L 331.605469 -18.539062 L 409.863281 329.777344 L 63.011719 407.710938 Z M -15.25 59.394531 " clip-rule="nonzero"/></clipPath><clipPath id="a7c39b6238"><path d="M -15.25 59.394531 L 331.605469 -18.539062 L 409.863281 329.777344 L 63.011719 407.710938 Z M -15.25 59.394531 " clip-rule="nonzero"/></clipPath><clipPath id="9252919ec1"><path d="M 219 331 L 231 331 L 231 350 L 219 350 Z M 219 331 " clip-rule="nonzero"/></clipPath><clipPath id="595f03fdc7"><path d="M -15.25 59.394531 L 331.605469 -18.539062 L 409.863281 329.777344 L 63.011719 407.710938 Z M -15.25 59.394531 " clip-rule="nonzero"/></clipPath><clipPath id="4cc474225a"><path d="M -15.25 59.394531 L 331.605469 -18.539062 L 409.863281 329.777344 L 63.011719 407.710938 Z M -15.25 59.394531 " clip-rule="nonzero"/></clipPath><clipPath id="01aa895e18"><path d="M 244 304 L 278 304 L 278 326 L 244 326 Z M 244 304 " clip-rule="nonzero"/></clipPath><clipPath id="8f7e317e4c"><path d="M -15.25 59.394531 L 331.605469 -18.539062 L 409.863281 329.777344 L 63.011719 407.710938 Z M -15.25 59.394531 " clip-rule="nonzero"/></clipPath><clipPath id="1b01aefcd6"><path d="M -15.25 59.394531 L 331.605469 -18.539062 L 409.863281 329.777344 L 63.011719 407.710938 Z M -15.25 59.394531 " clip-rule="nonzero"/></clipPath></defs><g clip-path="url(#bacfad8399)"><g clip-path="url(#9e98f15c80)"><g clip-path="url(#704e751abc)"><path fill="#508ba5" d="M 18.839844 141.664062 C 17.835938 141.886719 16.765625 141.445312 16.234375 140.507812 C 15.582031 139.359375 15.988281 137.898438 17.136719 137.246094 L 228.398438 17.625 C 229.546875 16.972656 231.007812 17.378906 231.660156 18.527344 C 232.308594 19.675781 231.90625 21.136719 230.757812 21.789062 L 19.492188 141.410156 C 19.285156 141.53125 19.0625 141.613281 18.839844 141.664062 Z M 18.839844 141.664062 " fill-opacity="1" fill-rule="nonzero"/></g></g></g><g clip-path="url(#de27b7e2bb)"><g clip-path="url(#a7be2eff03)"><g clip-path="url(#f7e9d3cfe5)"><path fill="#508ba5" d="M 66.585938 297.082031 C 65.585938 297.308594 64.515625 296.867188 63.980469 295.925781 C 53.3125 277.082031 46.613281 256.730469 44.070312 235.4375 C 41.617188 214.875 43.125 194.300781 48.554688 174.292969 C 53.984375 154.285156 63.0625 135.847656 75.535156 119.496094 C 88.453125 102.566406 104.460938 88.625 123.121094 78.058594 C 141.777344 67.496094 161.96875 60.9375 183.132812 58.574219 C 203.574219 56.289062 224.054688 57.988281 244.003906 63.625 C 263.953125 69.261719 282.371094 78.554688 298.742188 91.238281 C 315.691406 104.371094 329.699219 120.582031 340.367188 139.429688 C 341.019531 140.578125 340.613281 142.039062 339.464844 142.6875 C 338.316406 143.339844 336.855469 142.9375 336.203125 141.785156 C 315.714844 105.601562 282.507812 79.476562 242.703125 68.230469 C 202.90625 56.984375 161.273438 61.953125 125.476562 82.222656 C 89.679688 102.492188 64.003906 135.636719 53.171875 175.546875 C 42.339844 215.46875 47.65625 257.382812 68.144531 293.566406 C 68.796875 294.71875 68.390625 296.175781 67.242188 296.828125 C 67.03125 296.949219 66.8125 297.03125 66.585938 297.082031 Z M 66.585938 297.082031 " fill-opacity="1" fill-rule="nonzero"/></g></g></g><g clip-path="url(#1ea09eb08c)"><g clip-path="url(#d5b023b480)"><g clip-path="url(#f4262974cd)"><path fill="#222b3c" d="M 311.367188 297.132812 C 310.554688 295.699219 309.449219 294.539062 308.175781 293.675781 L 308.175781 293.667969 L 301.765625 289.449219 L 300.953125 290.640625 L 296.699219 283.128906 C 295.605469 281.199219 294.03125 279.710938 292.210938 278.734375 L 285.550781 274.125 L 283.355469 277.914062 C 282.84375 278.078125 282.335938 278.28125 281.839844 278.527344 C 279.859375 244.597656 285.695312 203.714844 273.363281 183.960938 C 256.699219 157.269531 179.535156 116.6875 156.328125 104.902344 C 154.339844 103.890625 152.253906 106.074219 153.351562 108.015625 L 204.261719 197.929688 L 202.304688 199.859375 L 208.578125 204.207031 C 209.566406 204.96875 210.722656 205.503906 211.972656 205.738281 C 216.675781 206.617188 220.953125 209.585938 223.320312 214.230469 C 227.171875 221.800781 224.339844 231.210938 216.960938 235.410156 C 209.253906 239.796875 199.457031 237.09375 195.089844 229.382812 C 192.699219 225.160156 192.433594 220.320312 193.949219 216.085938 C 194.785156 213.75 194.625 211.175781 193.402344 209.015625 L 140.375 115.363281 C 140.074219 114.832031 139.632812 114.503906 139.152344 114.34375 L 139.152344 114.335938 L 132.011719 109.382812 L 129.34375 116.328125 L 135.316406 129.875 C 133.367188 164.703125 131.371094 233.105469 143.757812 257.34375 C 154.355469 278.089844 191.074219 295.105469 219.265625 314.179688 C 215.234375 317.640625 214.074219 323.578125 216.789062 328.375 L 221.757812 337.148438 C 219.5625 340.3125 219.230469 344.582031 221.253906 348.15625 L 226.207031 356.902344 L 224 358.914062 L 230.972656 363.648438 C 234.167969 366.09375 238.648438 366.546875 242.371094 364.4375 L 314.460938 323.617188 C 319.4375 320.800781 321.1875 314.480469 318.371094 309.503906 Z M 311.367188 297.132812 " fill-opacity="1" fill-rule="nonzero"/></g></g></g><g clip-path="url(#af3186f97f)"><g clip-path="url(#8d866141b1)"><g clip-path="url(#f430ac2e06)"><path fill="#222b3c" d="M 240.058594 367.867188 C 236.457031 368.675781 232.617188 367.890625 229.574219 365.589844 L 222.65625 360.894531 C 222.050781 360.480469 221.664062 359.816406 221.613281 359.085938 C 221.5625 358.355469 221.847656 357.640625 222.386719 357.148438 L 223.183594 356.417969 L 219.171875 349.335938 C 217.035156 345.554688 217 340.910156 218.988281 337.109375 L 214.710938 329.554688 C 211.996094 324.765625 212.457031 318.894531 215.617188 314.613281 C 208.699219 310.03125 201.261719 305.515625 194.042969 301.128906 C 171.226562 287.273438 149.675781 274.1875 141.628906 258.433594 C 129.21875 234.148438 130.808594 168 132.898438 130.3125 L 127.15625 117.292969 C 126.902344 116.714844 126.886719 116.058594 127.113281 115.46875 L 129.78125 108.523438 C 130.042969 107.835938 130.605469 107.308594 131.308594 107.09375 C 132.015625 106.878906 132.773438 106.996094 133.375 107.414062 L 140.308594 112.222656 C 141.214844 112.621094 141.953125 113.292969 142.457031 114.183594 L 195.484375 207.835938 C 197.027344 210.558594 197.289062 213.859375 196.203125 216.890625 C 194.863281 220.628906 195.21875 224.75 197.171875 228.203125 C 198.96875 231.375 201.894531 233.65625 205.410156 234.625 C 208.925781 235.59375 212.605469 235.136719 215.777344 233.332031 C 222.011719 229.78125 224.4375 221.699219 221.1875 215.316406 C 219.246094 211.507812 215.730469 208.875 211.53125 208.089844 C 209.96875 207.796875 208.464844 207.121094 207.167969 206.140625 L 200.945312 201.824219 C 200.359375 201.417969 199.984375 200.773438 199.921875 200.0625 C 199.859375 199.355469 200.121094 198.65625 200.628906 198.15625 L 201.277344 197.511719 L 151.269531 109.195312 C 150.253906 107.398438 150.527344 105.191406 151.953125 103.699219 C 153.378906 102.207031 155.570312 101.832031 157.410156 102.765625 C 169.945312 109.132812 194.558594 122.019531 218.554688 136.800781 C 248.949219 155.527344 268.070312 170.96875 275.390625 182.691406 C 284.375 197.085938 284.125 221.210938 283.859375 246.75 C 283.773438 255.246094 283.683594 263.972656 283.957031 272.339844 C 284.257812 272.070312 284.625 271.878906 285.023438 271.789062 L 285.027344 271.789062 C 285.679688 271.644531 286.363281 271.777344 286.910156 272.15625 L 293.464844 276.691406 C 295.691406 277.917969 297.527344 279.734375 298.78125 281.949219 L 301.675781 287.058594 C 302.15625 287.042969 302.648438 287.167969 303.082031 287.453125 L 309.492188 291.671875 C 309.550781 291.710938 309.605469 291.75 309.660156 291.792969 C 311.230469 292.890625 312.503906 294.289062 313.449219 295.953125 C 314.390625 297.621094 320.453125 308.324219 320.453125 308.324219 C 322.128906 311.289062 322.554688 314.726562 321.644531 318.007812 C 320.734375 321.289062 318.601562 324.019531 315.640625 325.699219 L 243.550781 366.515625 C 242.441406 367.148438 241.261719 367.597656 240.058594 367.867188 Z M 227.851562 358.636719 L 232.316406 361.667969 C 232.351562 361.691406 232.390625 361.71875 232.425781 361.746094 C 234.96875 363.691406 238.410156 363.929688 241.195312 362.351562 L 313.28125 321.535156 C 315.132812 320.488281 316.464844 318.78125 317.035156 316.730469 C 317.601562 314.679688 317.335938 312.53125 316.289062 310.679688 L 309.285156 298.3125 C 308.679688 297.242188 307.851562 296.347656 306.832031 295.65625 C 306.796875 295.628906 306.761719 295.605469 306.730469 295.582031 L 302.261719 292.640625 C 301.847656 292.910156 301.355469 293.050781 300.851562 293.027344 C 300.027344 292.992188 299.277344 292.535156 298.871094 291.816406 L 294.617188 284.308594 C 293.785156 282.835938 292.5625 281.636719 291.078125 280.839844 C 291 280.796875 290.921875 280.75 290.847656 280.699219 L 286.320312 277.566406 L 285.425781 279.113281 C 285.128906 279.625 284.652344 280.011719 284.089844 280.191406 C 283.679688 280.324219 283.277344 280.484375 282.894531 280.671875 C 282.175781 281.027344 281.328125 280.996094 280.636719 280.589844 C 279.945312 280.1875 279.5 279.464844 279.453125 278.664062 C 278.851562 268.359375 278.964844 257.347656 279.078125 246.699219 C 279.335938 221.878906 279.578125 198.433594 271.332031 185.226562 C 255.113281 159.246094 179.269531 119.25 155.664062 107.246094 L 206.34375 196.75 C 206.855469 197.652344 206.726562 198.773438 206.039062 199.535156 L 209.941406 202.238281 C 209.976562 202.261719 210.007812 202.285156 210.039062 202.3125 C 210.75 202.855469 211.566406 203.230469 212.410156 203.386719 C 218.078125 204.445312 222.832031 208.003906 225.453125 213.144531 C 227.597656 217.355469 228.019531 222.195312 226.644531 226.769531 C 225.269531 231.34375 222.25 235.152344 218.144531 237.488281 C 213.859375 239.925781 208.886719 240.546875 204.136719 239.238281 C 199.386719 237.929688 195.4375 234.847656 193.007812 230.558594 C 190.367188 225.898438 189.890625 220.328125 191.699219 215.277344 C 192.3125 213.558594 192.175781 211.703125 191.320312 210.195312 L 138.316406 116.582031 C 138.078125 116.492188 137.859375 116.371094 137.667969 116.214844 L 133.152344 113.085938 L 131.933594 116.265625 L 137.507812 128.90625 C 137.660156 129.253906 137.726562 129.628906 137.707031 130.007812 C 136.035156 159.878906 133.484375 231.976562 145.886719 256.257812 C 153.320312 270.804688 175.285156 284.140625 196.527344 297.042969 C 204.605469 301.949219 212.957031 307.023438 220.609375 312.195312 C 221.226562 312.613281 221.613281 313.296875 221.65625 314.042969 C 221.699219 314.785156 221.390625 315.507812 220.824219 315.992188 C 217.589844 318.769531 216.769531 323.480469 218.875 327.199219 L 223.839844 335.96875 C 224.292969 336.769531 224.25 337.753906 223.726562 338.511719 C 221.992188 341.011719 221.839844 344.335938 223.335938 346.980469 L 228.289062 355.722656 C 228.832031 356.679688 228.648438 357.882812 227.851562 358.636719 Z M 227.851562 358.636719 " fill-opacity="1" fill-rule="nonzero"/></g></g></g><g clip-path="url(#ed3e8d1f17)"><g clip-path="url(#06e1e3e82b)"><g clip-path="url(#3c04de2954)"><path fill="#222b3c" d="M 88.804688 300.113281 C 87.90625 298.527344 86.617188 297.304688 85.125 296.492188 L 78.453125 291.902344 L 76.925781 296.101562 C 76.609375 296.238281 76.296875 296.390625 75.992188 296.566406 L 68.28125 300.929688 C 63.761719 303.488281 62.171875 309.226562 64.730469 313.746094 L 66.859375 317.503906 L 65.398438 320.015625 L 71.539062 324.273438 C 74.445312 326.507812 78.519531 326.925781 81.910156 325.003906 L 89.621094 320.640625 C 94.140625 318.082031 95.730469 312.34375 93.171875 307.824219 Z M 88.804688 300.113281 " fill-opacity="1" fill-rule="nonzero"/></g></g></g><g clip-path="url(#be8002011b)"><g clip-path="url(#4d36d311d9)"><g clip-path="url(#0f50efdea1)"><path fill="#222b3c" d="M 79.855469 328.339844 C 76.511719 329.089844 72.949219 328.355469 70.128906 326.207031 L 64.035156 321.980469 C 63.007812 321.269531 62.703125 319.890625 63.332031 318.8125 L 64.101562 317.488281 L 62.648438 314.925781 C 61.097656 312.183594 60.703125 309 61.542969 305.964844 C 62.386719 302.929688 64.359375 300.402344 67.101562 298.851562 L 74.8125 294.484375 C 74.875 294.445312 74.941406 294.410156 75.007812 294.375 L 76.207031 291.082031 C 76.460938 290.386719 77.019531 289.847656 77.726562 289.621094 C 78.433594 289.398438 79.199219 289.511719 79.808594 289.929688 L 86.382812 294.457031 C 88.265625 295.507812 89.820312 297.054688 90.886719 298.933594 C 91.953125 300.816406 95.253906 306.648438 95.253906 306.648438 C 98.457031 312.308594 96.460938 319.519531 90.800781 322.722656 L 83.089844 327.089844 C 82.058594 327.671875 80.96875 328.085938 79.855469 328.339844 Z M 68.578125 319.308594 L 72.902344 322.308594 C 72.933594 322.332031 72.964844 322.355469 72.996094 322.378906 C 75.238281 324.101562 78.273438 324.316406 80.734375 322.925781 L 88.445312 318.558594 C 91.808594 316.652344 92.996094 312.367188 91.089844 309.003906 L 86.722656 301.292969 C 86.078125 300.152344 85.128906 299.21875 83.980469 298.59375 C 83.90625 298.554688 83.835938 298.511719 83.769531 298.460938 L 79.644531 295.625 L 79.171875 296.921875 C 78.945312 297.542969 78.472656 298.042969 77.867188 298.300781 C 77.621094 298.40625 77.386719 298.523438 77.167969 298.648438 L 69.457031 303.011719 C 67.828125 303.933594 66.65625 305.4375 66.15625 307.242188 C 65.65625 309.046875 65.890625 310.9375 66.8125 312.566406 L 68.941406 316.328125 C 69.359375 317.066406 69.355469 317.976562 68.925781 318.710938 Z M 68.578125 319.308594 " fill-opacity="1" fill-rule="nonzero"/></g></g></g><g clip-path="url(#36c451a13f)"><g clip-path="url(#971de89bbd)"><g clip-path="url(#13b0a44cb7)"><path fill="#222b3c" d="M 366.75 152.917969 L 362.382812 145.207031 C 361.351562 143.382812 359.796875 142.035156 358.015625 141.246094 C 358.015625 141.246094 352.011719 136.976562 352.011719 136.976562 L 348.453125 142.289062 L 341.855469 146.023438 C 337.339844 148.582031 335.75 154.320312 338.308594 158.839844 L 340.640625 162.957031 L 338.117188 164.617188 L 345.382812 169.5625 C 345.496094 169.644531 345.613281 169.726562 345.734375 169.800781 L 345.785156 169.835938 C 348.625 171.652344 352.351562 171.878906 355.488281 170.101562 L 363.199219 165.734375 C 367.71875 163.175781 369.308594 157.4375 366.75 152.917969 Z M 366.75 152.917969 " fill-opacity="1" fill-rule="nonzero"/></g></g></g><g clip-path="url(#35ac582247)"><g clip-path="url(#24bdb16c5e)"><g clip-path="url(#5300a23a89)"><path fill="#222b3c" d="M 353.433594 173.429688 C 350.433594 174.105469 347.246094 173.585938 344.558594 171.890625 C 344.519531 171.867188 344.476562 171.839844 344.4375 171.8125 L 344.40625 171.792969 C 344.273438 171.707031 344.144531 171.617188 344.015625 171.527344 L 336.769531 166.597656 C 336.109375 166.148438 335.71875 165.398438 335.722656 164.601562 C 335.730469 163.800781 336.132812 163.058594 336.800781 162.621094 L 337.457031 162.1875 L 336.226562 160.019531 C 333.023438 154.359375 335.019531 147.148438 340.679688 143.941406 L 346.78125 140.488281 L 350.023438 135.644531 C 350.382812 135.109375 350.933594 134.742188 351.582031 134.625 C 352.214844 134.507812 352.871094 134.652344 353.398438 135.027344 L 359.21875 139.167969 C 361.441406 140.207031 363.25 141.882812 364.464844 144.027344 L 368.832031 151.742188 C 370.382812 154.480469 370.777344 157.664062 369.933594 160.699219 C 369.09375 163.734375 367.121094 166.261719 364.378906 167.816406 L 356.667969 172.179688 C 355.640625 172.761719 354.550781 173.179688 353.433594 173.429688 Z M 347.074219 167.820312 C 349.273438 169.226562 352.042969 169.300781 354.308594 168.019531 L 362.023438 163.652344 C 363.652344 162.730469 364.824219 161.226562 365.324219 159.421875 C 365.824219 157.617188 365.589844 155.726562 364.667969 154.097656 C 363.746094 152.46875 360.300781 146.386719 360.300781 146.386719 C 359.554688 145.066406 358.429688 144.046875 357.046875 143.433594 C 356.878906 143.359375 356.722656 143.269531 356.578125 143.160156 L 352.628906 140.351562 L 350.441406 143.621094 C 350.234375 143.929688 349.957031 144.1875 349.632812 144.371094 L 343.035156 148.105469 C 339.671875 150.011719 338.484375 154.296875 340.390625 157.660156 L 342.722656 161.777344 C 343.25 162.71875 343.082031 163.871094 342.363281 164.617188 L 346.726562 167.585938 C 346.742188 167.597656 346.757812 167.605469 346.773438 167.617188 C 346.859375 167.679688 346.945312 167.738281 347.035156 167.792969 C 347.046875 167.804688 347.0625 167.8125 347.074219 167.820312 Z M 347.074219 167.820312 " fill-opacity="1" fill-rule="nonzero"/></g></g></g><g clip-path="url(#fb743b827e)"><g clip-path="url(#bc68b4d416)"><g clip-path="url(#444ef8dbda)"><path fill="#222b3c" d="M 243.574219 15.609375 L 235.851562 10.355469 L 232.453125 15.5 C 229.65625 17.195312 227.914062 20 227.480469 23.027344 L 224.226562 27.957031 L 231.730469 33.054688 C 234.96875 35.398438 239.410156 35.792969 243.117188 33.695312 C 248.1875 30.824219 249.96875 24.386719 247.101562 19.320312 C 246.214844 17.757812 244.992188 16.507812 243.574219 15.609375 Z M 243.574219 15.609375 " fill-opacity="1" fill-rule="nonzero"/></g></g></g><g clip-path="url(#7dad1e4e28)"><g clip-path="url(#beeca5fe05)"><g clip-path="url(#097de4097e)"><path fill="#222b3c" d="M 240.777344 37.132812 C 237.234375 37.929688 233.445312 37.214844 230.40625 35.046875 C 230.398438 35.042969 230.390625 35.039062 230.382812 35.035156 L 222.882812 29.933594 C 221.800781 29.199219 221.511719 27.730469 222.230469 26.636719 L 225.207031 22.136719 C 225.847656 18.699219 227.832031 15.695312 230.738281 13.757812 L 233.855469 9.039062 C 234.207031 8.503906 234.753906 8.140625 235.386719 8.011719 C 236.015625 7.886719 236.667969 8.019531 237.195312 8.378906 L 244.910156 13.625 C 246.671875 14.753906 248.148438 16.3125 249.183594 18.140625 C 250.882812 21.148438 251.3125 24.640625 250.390625 27.96875 C 249.46875 31.300781 247.304688 34.074219 244.296875 35.777344 C 243.179688 36.40625 241.992188 36.859375 240.777344 37.132812 Z M 233 31.027344 C 233.042969 31.054688 233.089844 31.085938 233.132812 31.117188 C 235.714844 32.984375 239.167969 33.179688 241.941406 31.613281 C 243.835938 30.539062 245.199219 28.792969 245.78125 26.691406 C 246.363281 24.59375 246.089844 22.394531 245.015625 20.5 C 244.347656 19.316406 243.433594 18.351562 242.292969 17.632812 C 242.269531 17.617188 242.25 17.601562 242.226562 17.589844 L 236.507812 13.699219 L 234.449219 16.820312 C 234.253906 17.113281 233.996094 17.363281 233.691406 17.546875 C 231.597656 18.816406 230.195312 20.9375 229.847656 23.367188 C 229.800781 23.71875 229.671875 24.050781 229.476562 24.347656 L 227.523438 27.304688 Z M 233 31.027344 " fill-opacity="1" fill-rule="nonzero"/></g></g></g><g clip-path="url(#da8d5919be)"><g clip-path="url(#d0c6f87cd4)"><g clip-path="url(#9087462d4f)"><path fill="#222b3c" d="M 124.398438 98.371094 C 124.515625 98.453125 124.628906 98.53125 124.746094 98.609375 L 124.78125 98.632812 C 127.628906 100.488281 131.390625 100.734375 134.554688 98.941406 L 142.265625 94.578125 C 146.785156 92.019531 148.371094 86.28125 145.8125 81.761719 L 141.449219 74.050781 C 140.4375 72.265625 138.929688 70.941406 137.195312 70.144531 L 131.269531 65.976562 L 128.464844 70.59375 L 120.921875 74.867188 C 116.402344 77.425781 114.8125 83.164062 117.371094 87.683594 L 120 92.320312 L 117.941406 93.914062 Z M 124.398438 98.371094 " fill-opacity="1" fill-rule="nonzero"/></g></g></g><g clip-path="url(#1d1296fd78)"><g clip-path="url(#64aa7c4c26)"><g clip-path="url(#17e50b31bb)"><path fill="#222b3c" d="M 132.492188 102.277344 C 129.460938 102.957031 126.242188 102.417969 123.539062 100.679688 C 123.5 100.652344 123.460938 100.628906 123.421875 100.601562 L 123.40625 100.59375 C 123.277344 100.507812 123.148438 100.417969 123.019531 100.324219 L 116.582031 95.878906 C 115.957031 95.445312 115.570312 94.738281 115.550781 93.976562 C 115.53125 93.214844 115.875 92.488281 116.480469 92.019531 L 116.898438 91.695312 L 115.289062 88.859375 C 113.738281 86.121094 113.347656 82.9375 114.1875 79.902344 C 115.027344 76.863281 117 74.339844 119.742188 72.785156 L 126.746094 68.820312 L 129.222656 64.738281 C 129.566406 64.171875 130.136719 63.769531 130.777344 63.636719 C 131.425781 63.5 132.101562 63.640625 132.644531 64.019531 L 138.402344 68.066406 C 140.570312 69.113281 142.339844 70.769531 143.527344 72.871094 L 147.894531 80.582031 C 151.097656 86.242188 149.101562 93.453125 143.445312 96.65625 L 135.730469 101.023438 C 134.699219 101.605469 133.609375 102.023438 132.492188 102.273438 Z M 126.074219 96.621094 C 126.078125 96.625 126.082031 96.625 126.085938 96.628906 C 128.292969 98.066406 131.085938 98.15625 133.375 96.859375 L 141.085938 92.496094 C 144.449219 90.589844 145.636719 86.304688 143.730469 82.941406 L 139.367188 75.230469 C 138.636719 73.941406 137.539062 72.933594 136.199219 72.316406 C 136.066406 72.257812 135.9375 72.183594 135.820312 72.101562 L 131.984375 69.40625 L 130.511719 71.835938 C 130.300781 72.183594 130 72.476562 129.644531 72.675781 L 122.101562 76.949219 C 120.472656 77.871094 119.296875 79.375 118.796875 81.179688 C 118.296875 82.984375 118.53125 84.875 119.453125 86.503906 L 122.082031 91.144531 C 122.558594 91.984375 122.472656 93.007812 121.917969 93.75 L 125.761719 96.402344 C 125.773438 96.414062 125.789062 96.425781 125.804688 96.433594 C 125.890625 96.496094 125.976562 96.554688 126.0625 96.613281 C 126.066406 96.613281 126.070312 96.617188 126.074219 96.621094 Z M 126.074219 96.621094 " fill-opacity="1" fill-rule="nonzero"/></g></g></g><g clip-path="url(#6f7b00ca43)"><g clip-path="url(#c2fd86c17c)"><g clip-path="url(#b2b7dc05f8)"><path fill="#222b3c" d="M 19.28125 153.617188 L 19.3125 153.636719 C 22.53125 155.832031 26.84375 156.15625 30.460938 154.105469 C 35.53125 151.234375 37.3125 144.800781 34.441406 139.730469 C 33.335938 137.777344 31.699219 136.316406 29.816406 135.414062 C 27.933594 134.515625 23.007812 130.660156 23.007812 130.660156 L 19.28125 136.246094 C 16.992188 137.820312 15.496094 140.171875 14.949219 142.738281 L 11.316406 148.183594 L 19.226562 153.578125 C 19.242188 153.589844 19.261719 153.601562 19.28125 153.617188 Z M 19.28125 153.617188 " fill-opacity="1" fill-rule="nonzero"/></g></g></g><g clip-path="url(#09617aae4f)"><g clip-path="url(#11264a7747)"><g clip-path="url(#7842b12970)"><path fill="#222b3c" d="M 28.066406 157.570312 C 24.632812 158.339844 20.992188 157.675781 17.964844 155.613281 C 17.960938 155.609375 17.9375 155.59375 17.925781 155.585938 C 17.914062 155.578125 17.863281 155.542969 17.851562 155.535156 L 9.96875 150.160156 C 8.886719 149.417969 8.601562 147.945312 9.328125 146.855469 L 12.71875 141.769531 C 13.449219 138.867188 15.140625 136.335938 17.535156 134.554688 L 21.019531 129.332031 C 21.375 128.796875 21.933594 128.425781 22.566406 128.308594 C 23.195312 128.1875 23.851562 128.328125 24.378906 128.699219 L 31.035156 133.347656 C 33.351562 134.5 35.246094 136.292969 36.523438 138.550781 C 40.039062 144.761719 37.847656 152.671875 31.640625 156.1875 C 30.5 156.832031 29.296875 157.292969 28.066406 157.570312 Z M 20.628906 151.640625 L 20.660156 151.660156 C 23.253906 153.429688 26.554688 153.566406 29.28125 152.023438 C 33.195312 149.808594 34.578125 144.824219 32.359375 140.910156 C 31.535156 139.449219 30.296875 138.296875 28.785156 137.574219 C 28.667969 137.519531 28.554688 137.453125 28.449219 137.378906 L 23.640625 134.019531 L 21.269531 137.574219 C 21.101562 137.824219 20.886719 138.042969 20.636719 138.214844 C 18.914062 139.398438 17.726562 141.183594 17.289062 143.234375 C 17.226562 143.53125 17.109375 143.8125 16.941406 144.066406 L 14.621094 147.542969 Z M 20.628906 151.640625 " fill-opacity="1" fill-rule="nonzero"/></g></g></g><g clip-path="url(#a41f476aa5)"><g clip-path="url(#6021cd119d)"><g clip-path="url(#b3dd6ee64d)"><path fill="#508ba5" d="M 60.988281 295.523438 L 67.988281 291.558594 C 68.550781 291.242188 69.136719 290.984375 69.746094 290.78125 C 70.359375 290.578125 70.984375 290.4375 71.625 290.359375 C 72.265625 290.28125 72.90625 290.265625 73.546875 290.3125 C 74.191406 290.359375 74.820312 290.472656 75.441406 290.644531 C 76.0625 290.816406 76.660156 291.046875 77.234375 291.335938 C 77.8125 291.625 78.351562 291.96875 78.859375 292.363281 C 79.367188 292.761719 79.832031 293.203125 80.253906 293.691406 C 80.675781 294.179688 81.042969 294.703125 81.359375 295.261719 L 85.324219 302.265625 C 85.640625 302.824219 85.902344 303.410156 86.105469 304.023438 C 86.304688 304.632812 86.445312 305.261719 86.523438 305.898438 C 86.601562 306.539062 86.617188 307.179688 86.570312 307.820312 C 86.523438 308.464844 86.414062 309.097656 86.242188 309.71875 C 86.070312 310.335938 85.839844 310.9375 85.550781 311.511719 C 85.261719 312.085938 84.917969 312.628906 84.519531 313.136719 C 84.125 313.644531 83.683594 314.109375 83.195312 314.527344 C 82.707031 314.949219 82.183594 315.316406 81.621094 315.636719 L 74.621094 319.597656 C 74.058594 319.917969 73.472656 320.175781 72.863281 320.378906 C 72.25 320.582031 71.625 320.722656 70.984375 320.800781 C 70.347656 320.878906 69.707031 320.894531 69.0625 320.847656 C 68.421875 320.800781 67.789062 320.6875 67.167969 320.515625 C 66.546875 320.34375 65.949219 320.113281 65.375 319.824219 C 64.796875 319.535156 64.257812 319.191406 63.75 318.796875 C 63.242188 318.398438 62.777344 317.957031 62.355469 317.46875 C 61.9375 316.980469 61.566406 316.457031 61.25 315.894531 L 57.285156 308.894531 C 56.96875 308.335938 56.707031 307.75 56.507812 307.136719 C 56.304688 306.527344 56.164062 305.898438 56.085938 305.261719 C 56.007812 304.621094 55.992188 303.980469 56.039062 303.339844 C 56.085938 302.695312 56.195312 302.0625 56.367188 301.441406 C 56.539062 300.824219 56.769531 300.222656 57.058594 299.648438 C 57.351562 299.074219 57.691406 298.53125 58.089844 298.023438 C 58.484375 297.515625 58.929688 297.050781 59.417969 296.632812 C 59.902344 296.210938 60.429688 295.84375 60.988281 295.523438 Z M 60.988281 295.523438 " fill-opacity="1" fill-rule="nonzero"/></g></g></g><g clip-path="url(#850e639d94)"><g clip-path="url(#2351daa86a)"><g clip-path="url(#081f24a385)"><path fill="#22384c" d="M 72.46875 322.96875 C 67.359375 324.117188 61.878906 321.863281 59.167969 317.078125 L 55.203125 310.074219 C 53.597656 307.238281 53.191406 303.949219 54.0625 300.804688 C 54.929688 297.664062 56.972656 295.050781 59.808594 293.445312 L 66.808594 289.480469 C 69.648438 287.875 72.9375 287.46875 76.078125 288.339844 C 79.21875 289.207031 81.835938 291.25 83.441406 294.085938 L 87.40625 301.085938 C 89.011719 303.921875 89.417969 307.214844 88.546875 310.355469 C 87.675781 313.5 85.636719 316.113281 82.796875 317.71875 L 75.796875 321.683594 C 74.730469 322.289062 73.605469 322.714844 72.46875 322.96875 Z M 71.203125 292.855469 C 70.5 293.015625 69.8125 293.277344 69.167969 293.644531 L 62.164062 297.609375 C 60.441406 298.585938 59.199219 300.171875 58.671875 302.082031 C 58.140625 303.992188 58.390625 305.996094 59.367188 307.71875 L 63.328125 314.71875 C 65.34375 318.277344 69.882812 319.535156 73.441406 317.519531 L 80.441406 313.554688 C 82.164062 312.578125 83.40625 310.988281 83.933594 309.082031 C 84.464844 307.171875 84.21875 305.167969 83.242188 303.445312 L 79.277344 296.445312 C 78.300781 294.71875 76.710938 293.480469 74.800781 292.949219 C 73.609375 292.621094 72.378906 292.589844 71.203125 292.855469 Z M 81.621094 315.636719 L 81.625 315.636719 Z M 81.621094 315.636719 " fill-opacity="1" fill-rule="nonzero"/></g></g></g><g clip-path="url(#1730dce04c)"><g clip-path="url(#73d0955c0b)"><g clip-path="url(#3330c65e7a)"><path fill="#508ba5" d="M 334.566406 140.617188 L 341.566406 136.652344 C 342.125 136.335938 342.710938 136.074219 343.324219 135.875 C 343.9375 135.671875 344.5625 135.53125 345.199219 135.453125 C 345.839844 135.375 346.480469 135.359375 347.125 135.40625 C 347.765625 135.453125 348.398438 135.5625 349.019531 135.734375 C 349.640625 135.90625 350.238281 136.136719 350.8125 136.425781 C 351.386719 136.71875 351.929688 137.058594 352.4375 137.457031 C 352.945312 137.851562 353.410156 138.296875 353.828125 138.78125 C 354.25 139.269531 354.621094 139.796875 354.9375 140.355469 L 358.902344 147.355469 C 359.21875 147.917969 359.476562 148.503906 359.679688 149.113281 C 359.882812 149.726562 360.023438 150.351562 360.101562 150.992188 C 360.179688 151.628906 360.195312 152.273438 360.148438 152.914062 C 360.101562 153.554688 359.992188 154.1875 359.820312 154.808594 C 359.648438 155.429688 359.414062 156.027344 359.125 156.601562 C 358.835938 157.179688 358.492188 157.71875 358.097656 158.226562 C 357.699219 158.734375 357.257812 159.199219 356.769531 159.621094 C 356.28125 160.042969 355.757812 160.410156 355.199219 160.726562 L 348.195312 164.691406 C 347.636719 165.007812 347.050781 165.269531 346.4375 165.46875 C 345.828125 165.671875 345.203125 165.8125 344.5625 165.890625 C 343.921875 165.96875 343.28125 165.984375 342.640625 165.9375 C 341.996094 165.890625 341.367188 165.78125 340.746094 165.609375 C 340.125 165.4375 339.527344 165.207031 338.949219 164.917969 C 338.375 164.628906 337.832031 164.285156 337.324219 163.886719 C 336.816406 163.492188 336.355469 163.050781 335.933594 162.5625 C 335.511719 162.074219 335.144531 161.550781 334.828125 160.988281 L 330.863281 153.988281 C 330.542969 153.425781 330.285156 152.839844 330.082031 152.230469 C 329.882812 151.617188 329.742188 150.992188 329.660156 150.351562 C 329.582031 149.714844 329.566406 149.074219 329.613281 148.429688 C 329.664062 147.789062 329.773438 147.15625 329.945312 146.535156 C 330.117188 145.914062 330.347656 145.316406 330.636719 144.742188 C 330.925781 144.164062 331.269531 143.625 331.667969 143.117188 C 332.0625 142.609375 332.503906 142.144531 332.992188 141.722656 C 333.480469 141.304688 334.003906 140.933594 334.566406 140.617188 Z M 334.566406 140.617188 " fill-opacity="1" fill-rule="nonzero"/></g></g></g><g clip-path="url(#5ece8c9f2c)"><g clip-path="url(#a5ce7f5be0)"><g clip-path="url(#7e19f12c52)"><path fill="#22384c" d="M 346.042969 168.0625 C 340.933594 169.210938 335.453125 166.957031 332.742188 162.171875 L 328.78125 155.167969 C 325.464844 149.3125 327.53125 141.851562 333.386719 138.539062 L 340.386719 134.574219 C 343.222656 132.96875 346.515625 132.5625 349.65625 133.433594 C 352.796875 134.304688 355.414062 136.34375 357.019531 139.179688 L 360.984375 146.179688 C 364.296875 152.035156 362.230469 159.496094 356.375 162.8125 L 349.375 166.777344 C 348.308594 167.382812 347.183594 167.808594 346.042969 168.0625 Z M 344.78125 137.949219 C 344.078125 138.109375 343.390625 138.371094 342.746094 138.738281 L 335.742188 142.703125 C 332.183594 144.714844 330.929688 149.253906 332.945312 152.8125 L 336.90625 159.8125 C 338.921875 163.375 343.460938 164.628906 347.019531 162.613281 L 354.019531 158.648438 C 357.578125 156.632812 358.835938 152.097656 356.820312 148.539062 L 352.855469 141.539062 C 351.878906 139.8125 350.289062 138.570312 348.378906 138.042969 C 347.1875 137.710938 345.957031 137.683594 344.78125 137.949219 Z M 344.78125 137.949219 " fill-opacity="1" fill-rule="nonzero"/></g></g></g><g clip-path="url(#d175db6bee)"><g clip-path="url(#b567c2a46a)"><g clip-path="url(#1be9911535)"><path fill="#508ba5" d="M 113.628906 69.460938 L 120.628906 65.496094 C 121.191406 65.179688 121.777344 64.921875 122.386719 64.71875 C 123 64.515625 123.625 64.375 124.265625 64.296875 C 124.902344 64.21875 125.546875 64.203125 126.1875 64.25 C 126.828125 64.296875 127.460938 64.40625 128.082031 64.578125 C 128.703125 64.75 129.300781 64.980469 129.875 65.273438 C 130.453125 65.5625 130.992188 65.90625 131.5 66.300781 C 132.007812 66.699219 132.472656 67.140625 132.894531 67.628906 C 133.3125 68.117188 133.683594 68.640625 134 69.199219 L 137.964844 76.199219 C 138.28125 76.761719 138.542969 77.347656 138.742188 77.960938 C 138.945312 78.570312 139.085938 79.195312 139.164062 79.835938 C 139.242188 80.476562 139.257812 81.117188 139.210938 81.757812 C 139.164062 82.402344 139.054688 83.03125 138.882812 83.652344 C 138.710938 84.273438 138.480469 84.871094 138.191406 85.449219 C 137.898438 86.023438 137.558594 86.5625 137.160156 87.070312 C 136.765625 87.578125 136.324219 88.042969 135.835938 88.464844 C 135.347656 88.886719 134.824219 89.253906 134.261719 89.570312 L 127.261719 93.535156 C 126.699219 93.851562 126.113281 94.113281 125.503906 94.316406 C 124.890625 94.515625 124.265625 94.65625 123.625 94.734375 C 122.988281 94.816406 122.347656 94.832031 121.703125 94.78125 C 121.0625 94.734375 120.429688 94.625 119.808594 94.453125 C 119.1875 94.28125 118.589844 94.050781 118.015625 93.761719 C 117.4375 93.472656 116.898438 93.128906 116.390625 92.730469 C 115.882812 92.335938 115.417969 91.894531 114.996094 91.40625 C 114.578125 90.917969 114.207031 90.394531 113.890625 89.832031 L 109.925781 82.832031 C 109.609375 82.273438 109.347656 81.683594 109.148438 81.074219 C 108.945312 80.460938 108.804688 79.835938 108.726562 79.195312 C 108.648438 78.558594 108.632812 77.917969 108.679688 77.273438 C 108.726562 76.632812 108.835938 76 109.007812 75.378906 C 109.179688 74.757812 109.410156 74.160156 109.699219 73.585938 C 109.992188 73.011719 110.332031 72.46875 110.730469 71.960938 C 111.125 71.453125 111.570312 70.988281 112.054688 70.566406 C 112.542969 70.148438 113.070312 69.777344 113.628906 69.460938 Z M 113.628906 69.460938 " fill-opacity="1" fill-rule="nonzero"/></g></g></g><g clip-path="url(#a83824588c)"><g clip-path="url(#f08e4db279)"><g clip-path="url(#641f160a47)"><path fill="#22384c" d="M 125.109375 96.90625 C 120 98.054688 114.519531 95.800781 111.808594 91.011719 L 107.84375 84.011719 C 106.238281 81.175781 105.832031 77.882812 106.703125 74.742188 C 107.574219 71.601562 109.613281 68.988281 112.449219 67.382812 L 119.453125 63.417969 C 125.308594 60.101562 132.769531 62.167969 136.082031 68.023438 L 140.046875 75.023438 C 141.652344 77.859375 142.058594 81.152344 141.1875 84.292969 C 140.320312 87.433594 138.277344 90.050781 135.441406 91.65625 L 128.441406 95.621094 C 127.371094 96.222656 126.25 96.648438 125.109375 96.90625 Z M 123.832031 66.796875 C 123.140625 66.953125 122.457031 67.210938 121.808594 67.578125 L 114.808594 71.542969 C 113.082031 72.519531 111.84375 74.109375 111.3125 76.019531 C 110.785156 77.929688 111.03125 79.929688 112.007812 81.65625 L 115.972656 88.65625 C 117.988281 92.214844 122.523438 93.472656 126.082031 91.457031 L 133.082031 87.492188 C 134.808594 86.515625 136.050781 84.925781 136.578125 83.015625 C 137.105469 81.105469 136.859375 79.105469 135.882812 77.378906 L 131.917969 70.378906 C 130.273438 67.46875 126.941406 66.097656 123.832031 66.796875 Z M 134.261719 89.574219 L 134.265625 89.574219 Z M 134.261719 89.574219 " fill-opacity="1" fill-rule="nonzero"/></g></g></g><g clip-path="url(#a8c811406e)"><g clip-path="url(#29102f1688)"><g clip-path="url(#7a523dcce7)"><path fill="#ffffff" d="M 27.875 137.265625 C 28.035156 137.9375 28.128906 138.621094 28.15625 139.3125 C 28.183594 140.003906 28.144531 140.691406 28.035156 141.375 C 27.925781 142.058594 27.75 142.726562 27.511719 143.375 C 27.273438 144.027344 26.972656 144.648438 26.609375 145.238281 C 26.246094 145.828125 25.832031 146.375 25.359375 146.886719 C 24.890625 147.394531 24.375 147.851562 23.8125 148.257812 C 23.253906 148.664062 22.660156 149.011719 22.03125 149.304688 C 21.402344 149.59375 20.75 149.820312 20.078125 149.980469 C 19.402344 150.140625 18.71875 150.234375 18.027344 150.261719 C 17.335938 150.289062 16.648438 150.25 15.964844 150.140625 C 15.28125 150.03125 14.613281 149.859375 13.964844 149.617188 C 13.3125 149.378906 12.695312 149.078125 12.105469 148.714844 C 11.511719 148.351562 10.964844 147.9375 10.457031 147.464844 C 9.945312 146.996094 9.488281 146.480469 9.082031 145.921875 C 8.675781 145.359375 8.328125 144.765625 8.039062 144.136719 C 7.746094 143.507812 7.523438 142.855469 7.359375 142.183594 C 7.199219 141.507812 7.105469 140.828125 7.078125 140.132812 C 7.050781 139.441406 7.089844 138.753906 7.199219 138.070312 C 7.308594 137.386719 7.484375 136.71875 7.722656 136.070312 C 7.960938 135.421875 8.261719 134.800781 8.625 134.210938 C 8.988281 133.621094 9.402344 133.070312 9.875 132.5625 C 10.34375 132.054688 10.859375 131.59375 11.417969 131.1875 C 11.980469 130.78125 12.574219 130.433594 13.203125 130.144531 C 13.832031 129.855469 14.484375 129.628906 15.15625 129.46875 C 15.832031 129.304688 16.515625 129.210938 17.207031 129.183594 C 17.898438 129.15625 18.585938 129.199219 19.269531 129.304688 C 19.953125 129.414062 20.621094 129.589844 21.269531 129.828125 C 21.921875 130.070312 22.539062 130.371094 23.128906 130.730469 C 23.722656 131.09375 24.269531 131.511719 24.777344 131.980469 C 25.289062 132.449219 25.746094 132.964844 26.152344 133.527344 C 26.558594 134.085938 26.90625 134.679688 27.195312 135.308594 C 27.488281 135.9375 27.710938 136.589844 27.875 137.265625 Z M 27.875 137.265625 " fill-opacity="1" fill-rule="nonzero"/></g></g></g><g clip-path="url(#547f288e6c)"><g clip-path="url(#bcceb15d4b)"><g clip-path="url(#cb2b8e6d08)"><path fill="#22384c" d="M 20.460938 152.347656 C 15.042969 153.566406 9.230469 151.175781 6.359375 146.097656 C 2.84375 139.890625 5.03125 131.980469 11.242188 128.464844 C 14.25 126.761719 17.738281 126.332031 21.070312 127.253906 C 24.402344 128.175781 27.175781 130.339844 28.875 133.347656 C 30.578125 136.355469 31.007812 139.847656 30.085938 143.175781 C 29.164062 146.507812 27 149.28125 23.992188 150.984375 C 22.859375 151.625 21.671875 152.074219 20.460938 152.347656 Z M 15.839844 131.761719 C 15.0625 131.933594 14.308594 132.222656 13.597656 132.628906 C 9.6875 134.84375 8.304688 139.828125 10.519531 143.742188 C 12.738281 147.65625 17.722656 149.035156 21.636719 146.820312 C 23.53125 145.746094 24.894531 144 25.476562 141.898438 C 26.058594 139.800781 25.785156 137.601562 24.714844 135.707031 C 23.640625 133.808594 21.894531 132.445312 19.792969 131.863281 C 18.480469 131.5 17.128906 131.46875 15.839844 131.761719 Z M 15.839844 131.761719 " fill-opacity="1" fill-rule="nonzero"/></g></g></g><g clip-path="url(#3ded041cfd)"><g clip-path="url(#a17a95e099)"><g clip-path="url(#c7f02f040c)"><path fill="#ffffff" d="M 240.53125 16.855469 C 240.691406 17.527344 240.785156 18.210938 240.8125 18.902344 C 240.839844 19.59375 240.800781 20.28125 240.691406 20.964844 C 240.582031 21.652344 240.410156 22.316406 240.167969 22.96875 C 239.929688 23.617188 239.628906 24.238281 239.265625 24.828125 C 238.902344 25.417969 238.488281 25.96875 238.019531 26.476562 C 237.546875 26.984375 237.03125 27.441406 236.472656 27.847656 C 235.910156 28.253906 235.316406 28.605469 234.6875 28.894531 C 234.058594 29.183594 233.40625 29.410156 232.734375 29.570312 C 232.058594 29.730469 231.378906 29.828125 230.6875 29.851562 C 229.992188 29.878906 229.304688 29.839844 228.621094 29.730469 C 227.9375 29.621094 227.269531 29.449219 226.621094 29.207031 C 225.972656 28.96875 225.351562 28.667969 224.761719 28.304688 C 224.171875 27.945312 223.621094 27.527344 223.113281 27.058594 C 222.605469 26.585938 222.148438 26.070312 221.738281 25.511719 C 221.332031 24.949219 220.984375 24.355469 220.695312 23.726562 C 220.40625 23.097656 220.179688 22.445312 220.019531 21.773438 C 219.855469 21.101562 219.761719 20.417969 219.734375 19.726562 C 219.707031 19.03125 219.75 18.34375 219.859375 17.660156 C 219.964844 16.976562 220.140625 16.308594 220.378906 15.660156 C 220.621094 15.011719 220.921875 14.390625 221.28125 13.800781 C 221.644531 13.210938 222.0625 12.660156 222.53125 12.152344 C 223 11.644531 223.515625 11.1875 224.078125 10.777344 C 224.636719 10.371094 225.230469 10.023438 225.863281 9.734375 C 226.492188 9.445312 227.140625 9.21875 227.816406 9.058594 C 228.488281 8.894531 229.171875 8.800781 229.863281 8.773438 C 230.554688 8.746094 231.242188 8.789062 231.925781 8.898438 C 232.613281 9.003906 233.277344 9.179688 233.929688 9.417969 C 234.578125 9.660156 235.199219 9.960938 235.789062 10.320312 C 236.378906 10.683594 236.929688 11.101562 237.4375 11.570312 C 237.945312 12.039062 238.402344 12.554688 238.808594 13.117188 C 239.214844 13.675781 239.566406 14.273438 239.855469 14.902344 C 240.144531 15.53125 240.371094 16.179688 240.53125 16.855469 Z M 240.53125 16.855469 " fill-opacity="1" fill-rule="nonzero"/></g></g></g><g clip-path="url(#616b0b1824)"><g clip-path="url(#fbbb61eafb)"><g clip-path="url(#c23f478802)"><path fill="#22384c" d="M 233.117188 31.9375 C 227.699219 33.152344 221.890625 30.761719 219.015625 25.6875 C 217.3125 22.679688 216.882812 19.1875 217.804688 15.859375 C 218.726562 12.527344 220.890625 9.753906 223.898438 8.050781 C 230.105469 4.539062 238.019531 6.726562 241.535156 12.9375 C 245.050781 19.144531 242.859375 27.054688 236.648438 30.570312 C 235.515625 31.214844 234.328125 31.664062 233.117188 31.9375 Z M 228.480469 11.355469 C 227.71875 11.527344 226.96875 11.8125 226.257812 12.214844 C 224.359375 13.289062 222.996094 15.035156 222.414062 17.136719 C 221.832031 19.234375 222.105469 21.433594 223.179688 23.332031 C 225.394531 27.242188 230.378906 28.625 234.292969 26.410156 C 238.207031 24.191406 239.585938 19.207031 237.371094 15.292969 C 235.558594 12.09375 231.898438 10.589844 228.484375 11.355469 Z M 228.480469 11.355469 " fill-opacity="1" fill-rule="nonzero"/></g></g></g><g clip-path="url(#6d8b499c63)"><g clip-path="url(#70cc3a52c7)"><g clip-path="url(#50cafb7c73)"><path fill="#ffffff" d="M 145.703125 102.8125 L 198.730469 196.464844 C 199.921875 198.5625 201.953125 200.089844 204.324219 200.535156 C 209.027344 201.414062 213.304688 204.378906 215.671875 209.027344 C 219.523438 216.59375 216.691406 226.003906 209.3125 230.207031 C 201.605469 234.59375 191.808594 231.886719 187.441406 224.175781 C 185.050781 219.957031 184.785156 215.113281 186.300781 210.878906 C 187.136719 208.542969 186.976562 205.96875 185.753906 203.8125 L 132.726562 110.160156 C 131.628906 108.21875 128.679688 108.886719 128.523438 111.109375 C 126.691406 137.070312 121.792969 224.117188 136.109375 252.140625 C 151.351562 281.96875 220.601562 304.089844 240.847656 335.695312 L 283.484375 311.554688 C 263.605469 279.289062 283.453125 207.167969 265.714844 178.753906 C 249.050781 152.0625 171.886719 111.480469 148.679688 99.695312 C 146.691406 98.6875 144.605469 100.871094 145.703125 102.808594 Z M 145.703125 102.8125 " fill-opacity="1" fill-rule="nonzero"/></g></g></g><g clip-path="url(#15d7dc9b1e)"><g clip-path="url(#eb63ef0f87)"><g clip-path="url(#2500e404ff)"><path fill="#22384c" d="M 241.371094 338.03125 C 240.414062 338.246094 239.386719 337.851562 238.832031 336.988281 C 229.167969 321.902344 207.421875 308.695312 186.394531 295.925781 C 163.578125 282.070312 142.027344 268.984375 133.980469 253.226562 C 127.691406 240.921875 124.289062 216.578125 123.871094 180.882812 C 123.539062 152.699219 125.148438 124.964844 126.136719 110.941406 C 126.285156 108.882812 127.734375 107.195312 129.746094 106.738281 L 129.753906 106.738281 C 131.761719 106.285156 133.792969 107.1875 134.808594 108.980469 L 187.835938 202.632812 C 189.378906 205.355469 189.640625 208.65625 188.554688 211.6875 C 187.21875 215.425781 187.570312 219.546875 189.523438 222.996094 C 191.320312 226.171875 194.246094 228.453125 197.761719 229.421875 C 201.277344 230.390625 204.960938 229.933594 208.128906 228.128906 C 214.363281 224.578125 216.792969 216.496094 213.539062 210.113281 C 211.601562 206.304688 208.082031 203.667969 203.882812 202.886719 C 200.851562 202.316406 198.214844 200.40625 196.648438 197.640625 L 143.621094 103.988281 C 142.605469 102.195312 142.878906 99.984375 144.304688 98.496094 C 145.730469 97.003906 147.925781 96.628906 149.765625 97.5625 C 173.148438 109.441406 250.773438 150.304688 267.742188 177.488281 C 276.730469 191.882812 276.476562 216.003906 276.210938 241.546875 C 275.941406 267.480469 275.660156 294.296875 285.519531 310.300781 C 285.859375 310.851562 285.960938 311.519531 285.800781 312.152344 C 285.640625 312.78125 285.226562 313.316406 284.664062 313.636719 L 242.027344 337.777344 C 241.816406 337.898438 241.59375 337.980469 241.371094 338.03125 Z M 130.878906 111.746094 C 129.027344 138.183594 124.308594 223.78125 138.242188 251.050781 C 145.671875 265.597656 167.636719 278.9375 188.878906 291.835938 C 209.527344 304.375 230.851562 317.324219 241.59375 332.523438 L 280.207031 310.660156 C 270.886719 293.390625 271.160156 267.023438 271.425781 241.496094 C 271.6875 216.675781 271.929688 193.230469 263.6875 180.019531 C 247.464844 154.039062 171.621094 114.046875 148.015625 102.042969 L 200.8125 195.285156 C 201.683594 196.820312 203.121094 197.875 204.765625 198.179688 C 210.429688 199.242188 215.183594 202.796875 217.804688 207.941406 C 219.949219 212.152344 220.371094 216.992188 218.996094 221.566406 C 217.621094 226.140625 214.601562 229.945312 210.496094 232.285156 C 206.210938 234.722656 201.238281 235.34375 196.488281 234.035156 C 191.742188 232.722656 187.789062 229.640625 185.359375 225.355469 C 182.722656 220.691406 182.242188 215.121094 184.050781 210.074219 C 184.667969 208.351562 184.527344 206.5 183.675781 204.992188 Z M 147.78125 101.625 L 145.703125 102.8125 L 147.785156 101.632812 C 147.78125 101.628906 147.78125 101.628906 147.78125 101.625 Z M 147.78125 101.625 " fill-opacity="1" fill-rule="nonzero"/></g></g></g><g clip-path="url(#e52432cde0)"><g clip-path="url(#8454006be2)"><g clip-path="url(#9b9554d297)"><path fill="#508ba5" d="M 264.792969 243.753906 C 264.617188 243.796875 264.433594 243.816406 264.242188 243.8125 C 262.921875 243.800781 261.863281 242.71875 261.875 241.394531 C 261.976562 231.8125 262.078125 221.898438 261.609375 212.976562 C 261.539062 211.660156 262.546875 210.535156 263.871094 210.464844 C 265.191406 210.394531 266.316406 211.40625 266.386719 212.726562 C 266.863281 221.796875 266.761719 231.785156 266.660156 241.445312 C 266.648438 242.578125 265.851562 243.519531 264.792969 243.753906 Z M 264.792969 243.753906 " fill-opacity="1" fill-rule="nonzero"/></g></g></g><g clip-path="url(#3c8b25de65)"><g clip-path="url(#d0dde6619a)"><g clip-path="url(#7ff2f2403b)"><path fill="#508ba5" d="M 234.703125 163.933594 C 234.046875 164.082031 233.328125 163.949219 232.746094 163.511719 C 228.554688 160.375 223.839844 157.050781 218.730469 153.632812 C 217.632812 152.898438 217.339844 151.414062 218.074219 150.316406 C 218.808594 149.21875 220.292969 148.921875 221.390625 149.65625 C 226.570312 153.121094 231.355469 156.496094 235.613281 159.683594 C 236.671875 160.476562 236.886719 161.976562 236.09375 163.035156 C 235.738281 163.507812 235.242188 163.8125 234.703125 163.933594 Z M 234.703125 163.933594 " fill-opacity="1" fill-rule="nonzero"/></g></g></g><g clip-path="url(#e6f5d8e041)"><g clip-path="url(#936903563f)"><g clip-path="url(#f321b54041)"><path fill="#508ba5" d="M 207.546875 243.5625 C 203.644531 244.441406 199.566406 244.464844 195.621094 243.625 C 194.328125 243.347656 193.503906 242.078125 193.78125 240.785156 C 194.054688 239.492188 195.328125 238.667969 196.617188 238.945312 C 200.515625 239.777344 204.566406 239.589844 208.332031 238.402344 C 209.898438 237.910156 211.417969 237.246094 212.855469 236.429688 C 214.003906 235.773438 215.460938 236.175781 216.117188 237.324219 C 216.769531 238.472656 216.367188 239.933594 215.222656 240.585938 C 213.492188 241.570312 211.65625 242.371094 209.769531 242.964844 C 209.035156 243.195312 208.292969 243.398438 207.546875 243.566406 Z M 207.546875 243.5625 " fill-opacity="1" fill-rule="nonzero"/></g></g></g><g clip-path="url(#ff7968c655)"><g clip-path="url(#67efaef8c3)"><g clip-path="url(#920c347108)"><path fill="#508ba5" d="M 136.296875 175.199219 C 136.125 175.234375 135.949219 175.253906 135.769531 175.253906 C 134.449219 175.253906 133.378906 174.183594 133.378906 172.863281 C 133.382812 163.699219 133.574219 153.914062 133.945312 143.777344 C 133.996094 142.457031 135.101562 141.425781 136.425781 141.472656 C 137.746094 141.523438 138.777344 142.632812 138.726562 143.953125 C 138.355469 154.03125 138.167969 163.757812 138.164062 172.863281 C 138.160156 174.003906 137.363281 174.957031 136.296875 175.199219 Z M 136.296875 175.199219 " fill-opacity="1" fill-rule="nonzero"/></g></g></g><g clip-path="url(#24928bf454)"><g clip-path="url(#db3e96cc8d)"><g clip-path="url(#161bfad0ae)"><path fill="#508ba5" d="M 181.144531 280.710938 C 180.554688 280.84375 179.910156 280.753906 179.355469 280.40625 C 169.703125 274.382812 162.957031 269.746094 157.488281 265.378906 C 156.457031 264.554688 156.289062 263.050781 157.113281 262.015625 C 157.9375 260.984375 159.441406 260.816406 160.472656 261.640625 C 165.792969 265.886719 172.398438 270.425781 181.890625 276.347656 C 183.007812 277.046875 183.351562 278.523438 182.652344 279.644531 C 182.296875 280.210938 181.75 280.578125 181.144531 280.710938 Z M 181.144531 280.710938 " fill-opacity="1" fill-rule="nonzero"/></g></g></g><g clip-path="url(#32a0971655)"><g clip-path="url(#b181524b75)"><g clip-path="url(#7f4dfc934a)"><path fill="#508ba5" d="M 208.960938 297.816406 C 208.363281 297.949219 207.714844 297.855469 207.15625 297.5 C 203.164062 294.964844 199.078125 292.460938 195.960938 290.5625 C 194.835938 289.875 194.476562 288.402344 195.164062 287.273438 C 195.851562 286.148438 197.324219 285.789062 198.453125 286.476562 C 201.585938 288.386719 205.695312 290.90625 209.71875 293.460938 C 210.835938 294.171875 211.164062 295.648438 210.457031 296.765625 C 210.101562 297.320312 209.558594 297.679688 208.960938 297.816406 Z M 208.960938 297.816406 " fill-opacity="1" fill-rule="nonzero"/></g></g></g><g clip-path="url(#87e0c7db48)"><g clip-path="url(#b7a40a72c5)"><g clip-path="url(#e363b659f5)"><path fill="#222b3c" d="M 213.859375 307.457031 L 273.15625 273.878906 C 278.84375 270.660156 286.078125 272.664062 289.296875 278.351562 L 296.996094 291.949219 L 217.089844 337.195312 L 209.386719 323.597656 C 206.167969 317.910156 208.171875 310.679688 213.859375 307.457031 Z M 213.859375 307.457031 " fill-opacity="1" fill-rule="nonzero"/></g></g></g><g clip-path="url(#1b3ec46ac7)"><g clip-path="url(#8e3ebbcac0)"><g clip-path="url(#640990258d)"><path fill="#222b3c" d="M 217.609375 339.53125 C 217.230469 339.617188 216.832031 339.609375 216.449219 339.503906 C 215.835938 339.335938 215.316406 338.929688 215.003906 338.378906 L 207.304688 324.777344 C 205.429688 321.46875 204.957031 317.628906 205.972656 313.964844 C 206.988281 310.300781 209.371094 307.25 212.679688 305.378906 L 271.976562 271.800781 C 275.285156 269.929688 279.125 269.457031 282.789062 270.46875 C 286.453125 271.484375 289.503906 273.867188 291.378906 277.175781 L 299.078125 290.773438 C 299.390625 291.328125 299.46875 291.980469 299.300781 292.589844 C 299.132812 293.203125 298.726562 293.722656 298.175781 294.035156 L 218.265625 339.28125 C 218.058594 339.398438 217.839844 339.484375 217.609375 339.535156 Z M 276.929688 274.960938 C 276.03125 275.164062 275.15625 275.5 274.335938 275.964844 L 215.035156 309.539062 C 212.839844 310.785156 211.257812 312.808594 210.585938 315.242188 C 209.910156 317.675781 210.226562 320.222656 211.46875 322.421875 L 217.988281 333.9375 L 293.734375 291.050781 L 287.214844 279.53125 C 285.96875 277.335938 283.945312 275.753906 281.511719 275.082031 C 279.992188 274.660156 278.425781 274.625 276.929688 274.960938 Z M 276.929688 274.960938 " fill-opacity="1" fill-rule="nonzero"/></g></g></g><g clip-path="url(#781238253e)"><g clip-path="url(#632ce272f2)"><g clip-path="url(#e597e429b5)"><path fill="#508ba5" d="M 217.910156 328.613281 L 289.214844 288.238281 C 289.832031 287.890625 290.476562 287.601562 291.152344 287.382812 C 291.824219 287.160156 292.515625 287.003906 293.21875 286.917969 C 293.921875 286.832031 294.628906 286.8125 295.335938 286.867188 C 296.042969 286.917969 296.738281 287.039062 297.421875 287.226562 C 298.105469 287.417969 298.765625 287.671875 299.398438 287.992188 C 300.03125 288.308594 300.628906 288.6875 301.1875 289.125 C 301.75 289.5625 302.257812 290.046875 302.722656 290.585938 C 303.1875 291.121094 303.59375 291.699219 303.941406 292.316406 L 310.503906 303.902344 C 310.851562 304.519531 311.136719 305.167969 311.359375 305.839844 C 311.582031 306.515625 311.738281 307.203125 311.824219 307.90625 C 311.910156 308.613281 311.929688 309.316406 311.875 310.023438 C 311.824219 310.734375 311.703125 311.429688 311.511719 312.113281 C 311.324219 312.796875 311.070312 313.453125 310.75 314.089844 C 310.429688 314.722656 310.054688 315.320312 309.617188 315.878906 C 309.179688 316.4375 308.691406 316.949219 308.15625 317.410156 C 307.617188 317.875 307.042969 318.28125 306.421875 318.632812 L 235.121094 359.007812 C 234.503906 359.355469 233.855469 359.640625 233.183594 359.863281 C 232.507812 360.085938 231.820312 360.242188 231.117188 360.328125 C 230.410156 360.414062 229.707031 360.433594 228.996094 360.378906 C 228.289062 360.328125 227.59375 360.207031 226.910156 360.015625 C 226.226562 359.828125 225.566406 359.574219 224.933594 359.253906 C 224.300781 358.933594 223.703125 358.558594 223.144531 358.121094 C 222.585938 357.683594 222.074219 357.195312 221.609375 356.660156 C 221.148438 356.121094 220.742188 355.546875 220.390625 354.925781 L 213.832031 343.339844 C 213.480469 342.722656 213.195312 342.078125 212.972656 341.40625 C 212.75 340.730469 212.597656 340.042969 212.507812 339.335938 C 212.421875 338.632812 212.40625 337.925781 212.457031 337.21875 C 212.511719 336.511719 212.632812 335.816406 212.820312 335.132812 C 213.011719 334.449219 213.265625 333.789062 213.582031 333.15625 C 213.902344 332.523438 214.28125 331.925781 214.71875 331.367188 C 215.152344 330.808594 215.640625 330.296875 216.179688 329.832031 C 216.714844 329.371094 217.292969 328.964844 217.910156 328.613281 Z M 217.910156 328.613281 " fill-opacity="1" fill-rule="nonzero"/></g></g></g><g clip-path="url(#93d6c2b718)"><g clip-path="url(#f3edbe8b36)"><g clip-path="url(#a7c39b6238)"><path fill="#22384c" d="M 232.695312 362.484375 C 227.167969 363.722656 221.238281 361.285156 218.308594 356.109375 L 211.746094 344.523438 C 208.160156 338.1875 210.398438 330.121094 216.730469 326.535156 L 288.035156 286.160156 C 294.367188 282.574219 302.4375 284.808594 306.023438 291.140625 L 312.582031 302.726562 C 316.167969 309.0625 313.933594 317.128906 307.601562 320.714844 L 236.296875 361.089844 C 235.140625 361.746094 233.925781 362.207031 232.695312 362.484375 Z M 292.6875 289.4375 C 291.902344 289.613281 291.128906 289.90625 290.390625 290.324219 L 219.085938 330.699219 C 215.050781 332.984375 213.625 338.128906 215.910156 342.164062 L 222.472656 353.75 C 224.757812 357.789062 229.902344 359.210938 233.941406 356.925781 L 305.242188 316.550781 C 309.28125 314.265625 310.707031 309.121094 308.421875 305.085938 L 301.859375 293.5 C 299.992188 290.199219 296.210938 288.644531 292.6875 289.4375 Z M 217.910156 328.617188 L 217.914062 328.617188 Z M 217.910156 328.617188 " fill-opacity="1" fill-rule="nonzero"/></g></g></g><g clip-path="url(#9252919ec1)"><g clip-path="url(#595f03fdc7)"><g clip-path="url(#4cc474225a)"><path fill="#ffffff" d="M 227.398438 349.328125 C 226.394531 349.554688 225.324219 349.113281 224.792969 348.171875 L 219.839844 339.425781 C 219.273438 338.417969 219.40625 337.472656 219.539062 336.996094 C 219.671875 336.519531 220.042969 335.636719 221.042969 335.070312 L 226.820312 331.796875 C 227.972656 331.148438 229.429688 331.550781 230.082031 332.699219 C 230.734375 333.851562 230.328125 335.308594 229.179688 335.960938 L 224.785156 338.449219 L 228.957031 345.816406 C 229.605469 346.964844 229.203125 348.425781 228.050781 349.074219 C 227.84375 349.195312 227.621094 349.277344 227.398438 349.328125 Z M 227.398438 349.328125 " fill-opacity="1" fill-rule="nonzero"/></g></g></g><g clip-path="url(#01aa895e18)"><g clip-path="url(#8f7e317e4c)"><g clip-path="url(#1b01aefcd6)"><path fill="#ffffff" d="M 247.722656 325.34375 C 246.722656 325.570312 245.648438 325.128906 245.117188 324.1875 C 244.464844 323.039062 244.871094 321.578125 246.019531 320.925781 L 274.386719 304.867188 C 275.535156 304.214844 276.996094 304.617188 277.644531 305.769531 C 278.296875 306.917969 277.894531 308.378906 276.742188 309.027344 L 248.378906 325.089844 C 248.167969 325.210938 247.945312 325.292969 247.722656 325.34375 Z M 247.722656 325.34375 " fill-opacity="1" fill-rule="nonzero"/></g></g></g></svg>